0
SECTION
2
HEADER
9
$INSUNITS
70
4
9
$ACADVER
1
AC1014
9
$HANDSEED
5
FFFF
0
ENDSEC
0
SECTION
2
TABLES
0
TABLE
2
VPORT
5
8
100
AcDbSymbolTable
0
ENDTAB
0
TABLE
2
LTYPE
5
5
100
AcDbSymbolTable
0
LTYPE
5
14
100
AcDbSymbolTableRecord
100
AcDbLinetypeTableRecord
2
BYBLOCK
70
0
0
LTYPE
5
15
100
AcDbSymbolTableRecord
100
AcDbLinetypeTableRecord
2
BYLAYER
70
0
0
ENDTAB
0
TABLE
2
LAYER
5
2
100
AcDbSymbolTable
70
2
0
LAYER
5
50
100
AcDbSymbolTableRecord
100
AcDbLayerTableRecord
2
0
70
0
6
CONTINUOUS
0
ENDTAB
0
TABLE
2
STYLE
5
3
100
AcDbSymbolTable
70
1
0
STYLE
5
11
100
AcDbSymbolTableRecord
100
AcDbTextStyleTableRecord
2
STANDARD
70
0
0
ENDTAB
0
TABLE
2
VIEW
5
6
100
AcDbSymbolTable
70
0
0
ENDTAB
0
TABLE
2
UCS
5
7
100
AcDbSymbolTable
70
0
0
ENDTAB
0
TABLE
2
APPID
5
9
100
AcDbSymbolTable
70
2
0
APPID
5
12
100
AcDbSymbolTableRecord
100
AcDbRegAppTableRecord
2
ACAD
70
0
0
ENDTAB
0
TABLE
2
DIMSTYLE
5
A
100
AcDbSymbolTable
70
1
0
ENDTAB
0
TABLE
2
BLOCK_RECORD
5
1
100
AcDbSymbolTable
70
1
0
BLOCK_RECORD
5
1F
100
AcDbSymbolTableRecord
100
AcDbBlockTableRecord
2
*MODEL_SPACE
0
BLOCK_RECORD
5
1B
100
AcDbSymbolTableRecord
100
AcDbBlockTableRecord
2
*PAPER_SPACE
0
ENDTAB
0
ENDSEC
0
SECTION
2
BLOCKS
0
BLOCK
5
20
100
AcDbEntity
100
AcDbBlockBegin
2
*MODEL_SPACE
0
ENDBLK
5
21
100
AcDbEntity
100
AcDbBlockEnd
0
BLOCK
5
1C
100
AcDbEntity
100
AcDbBlockBegin
2
*PAPER_SPACE
0
ENDBLK
5
1D
100
AcDbEntity
100
AcDbBlockEnd
0
ENDSEC
0
SECTION
2
ENTITIES
0
LWPOLYLINE
5
100
100
AcDbEntity
8
0
100
AcDbPolyline
90
132
70
1
43
0.0
10
219.00000000000003
20
79
10
223
20
79
10
223
20
76
10
229.00000000000003
20
76
10
229.00000000000003
20
79
10
235
20
79
10
235
20
76
10
241
20
76
10
241
20
79
10
247.00000000000003
20
79
10
247.00000000000003
20
76
10
253
20
76
10
253
20
79
10
259
20
79
10
259
20
76
10
265
20
76
10
265
20
79
10
271
20
79
10
271
20
76
10
277
20
76
10
277
20
79
10
283
20
79
10
283
20
76
10
289
20
76
10
289
20
79
10
295
20
79
10
295
20
76
10
301
20
76
10
301
20
79
10
307
20
79
10
307
20
76
10
313
20
76
10
313
20
79
10
319
20
79
10
319
20
76
10
325
20
76
10
325
20
79
10
331
20
79
10
331
20
76
10
337
20
76
10
337
20
79
10
343.00000000000006
20
79
10
343.00000000000006
20
76
10
349
20
76
10
349
20
79
10
353.00000000000006
20
79
10
353.00000000000006
20
84
10
356
20
84
10
356
20
90
10
353.00000000000006
20
90
10
353.00000000000006
20
96.000000000000014
10
356
20
96.000000000000014
10
356
20
102.00000000000001
10
353.00000000000006
20
102.00000000000001
10
353.00000000000006
20
108
10
356
20
108
10
356
20
114
10
353.00000000000006
20
114
10
353.00000000000006
20
120
10
356
20
120
10
356
20
126.00000000000001
10
353.00000000000006
20
126.00000000000001
10
353.00000000000006
20
132
10
356
20
132
10
356
20
138
10
353.00000000000006
20
138
10
353.00000000000006
20
143
10
349
20
143
10
349
20
146
10
343.00000000000006
20
146
10
343.00000000000006
20
143
10
337
20
143
10
337
20
146
10
331
20
146
10
331
20
143
10
325
20
143
10
325
20
146
10
319
20
146
10
319
20
143
10
313
20
143
10
313
20
146
10
307
20
146
10
307
20
143
10
301
20
143
10
301
20
146
10
295
20
146
10
295
20
143
10
289
20
143
10
289
20
146
10
283
20
146
10
283
20
143
10
277
20
143
10
277
20
146
10
271
20
146
10
271
20
143
10
265
20
143
10
265
20
146
10
259
20
146
10
259
20
143
10
253
20
143
10
253
20
146
10
247.00000000000003
20
146
10
247.00000000000003
20
143
10
241
20
143
10
241
20
146
10
235
20
146
10
235
20
143
10
229.00000000000003
20
143
10
229.00000000000003
20
146
10
223
20
146
10
223
20
143
10
219.00000000000003
20
143
10
219.00000000000003
20
138
10
216
20
138
10
216
20
132
10
219.00000000000003
20
132
10
219.00000000000003
20
126.00000000000001
10
216
20
126.00000000000001
10
216
20
120
10
219.00000000000003
20
120
10
219.00000000000003
20
114
10
216
20
114
10
216
20
108
10
219.00000000000003
20
108
10
219.00000000000003
20
102.00000000000001
10
216
20
102.00000000000001
10
216
20
96.000000000000014
10
219.00000000000003
20
96.000000000000014
10
219.00000000000003
20
90
10
216
20
90
10
216
20
84
10
219.00000000000003
20
84
0
ENDSEC
0
SECTION
2
OBJECTS
0
DICTIONARY
5
C
100
AcDbDictionary
3
ACAD_GROUP
350
D
3
ACAD_MLINESTYLE
350
17
0
DICTIONARY
5
D
100
AcDbDictionary
0
DICTIONARY
5
1A
330
C
100
AcDbDictionary
0
DICTIONARY
5
17
100
AcDbDictionary
0
ENDSEC
0
EOF
