0
SECTION
2
HEADER
9
$INSUNITS
70
4
9
$ACADVER
1
AC1014
9
$HANDSEED
5
FFFF
0
ENDSEC
0
SECTION
2
TABLES
0
TABLE
2
VPORT
5
8
100
AcDbSymbolTable
0
ENDTAB
0
TABLE
2
LTYPE
5
5
100
AcDbSymbolTable
0
LTYPE
5
14
100
AcDbSymbolTableRecord
100
AcDbLinetypeTableRecord
2
BYBLOCK
70
0
0
LTYPE
5
15
100
AcDbSymbolTableRecord
100
AcDbLinetypeTableRecord
2
BYLAYER
70
0
0
ENDTAB
0
TABLE
2
LAYER
5
2
100
AcDbSymbolTable
70
2
0
LAYER
5
50
100
AcDbSymbolTableRecord
100
AcDbLayerTableRecord
2
0
70
0
6
CONTINUOUS
0
ENDTAB
0
TABLE
2
STYLE
5
3
100
AcDbSymbolTable
70
1
0
STYLE
5
11
100
AcDbSymbolTableRecord
100
AcDbTextStyleTableRecord
2
STANDARD
70
0
0
ENDTAB
0
TABLE
2
VIEW
5
6
100
AcDbSymbolTable
70
0
0
ENDTAB
0
TABLE
2
UCS
5
7
100
AcDbSymbolTable
70
0
0
ENDTAB
0
TABLE
2
APPID
5
9
100
AcDbSymbolTable
70
2
0
APPID
5
12
100
AcDbSymbolTableRecord
100
AcDbRegAppTableRecord
2
ACAD
70
0
0
ENDTAB
0
TABLE
2
DIMSTYLE
5
A
100
AcDbSymbolTable
70
1
0
ENDTAB
0
TABLE
2
BLOCK_RECORD
5
1
100
AcDbSymbolTable
70
1
0
BLOCK_RECORD
5
1F
100
AcDbSymbolTableRecord
100
AcDbBlockTableRecord
2
*MODEL_SPACE
0
BLOCK_RECORD
5
1B
100
AcDbSymbolTableRecord
100
AcDbBlockTableRecord
2
*PAPER_SPACE
0
ENDTAB
0
ENDSEC
0
SECTION
2
BLOCKS
0
BLOCK
5
20
100
AcDbEntity
100
AcDbBlockBegin
2
*MODEL_SPACE
0
ENDBLK
5
21
100
AcDbEntity
100
AcDbBlockEnd
0
BLOCK
5
1C
100
AcDbEntity
100
AcDbBlockBegin
2
*PAPER_SPACE
0
ENDBLK
5
1D
100
AcDbEntity
100
AcDbBlockEnd
0
ENDSEC
0
SECTION
2
ENTITIES
0
LWPOLYLINE
5
100
100
AcDbEntity
8
0
100
AcDbPolyline
90
142
70
1
43
0.0
10
49
20
6.0000000000000009
10
49
20
3.0000000000000004
10
55
20
3.0000000000000004
10
55
20
6.0000000000000009
10
61.000000000000007
20
6.0000000000000009
10
61.000000000000007
20
3.0000000000000004
10
67
20
3.0000000000000004
10
67
20
6.0000000000000009
10
73
20
6.0000000000000009
10
73
20
3.0000000000000004
10
79
20
3.0000000000000004
10
79
20
6.0000000000000009
10
85
20
6.0000000000000009
10
85
20
3.0000000000000004
10
91
20
3.0000000000000004
10
91
20
6.0000000000000009
10
97.000000000000014
20
6.0000000000000009
10
97.000000000000014
20
3.0000000000000004
10
103
20
3.0000000000000004
10
103
20
6.0000000000000009
10
109
20
6.0000000000000009
10
109
20
3.0000000000000004
10
115
20
3.0000000000000004
10
115
20
6.0000000000000009
10
121.00000000000001
20
6.0000000000000009
10
121.00000000000001
20
3.0000000000000004
10
127.00000000000001
20
3.0000000000000004
10
127.00000000000001
20
6.0000000000000009
10
133
20
6.0000000000000009
10
133
20
3.0000000000000004
10
140
20
3.0000000000000004
10
140
20
12.5
10
137
20
12.5
10
137
20
18.5
10
140
20
18.5
10
140
20
24.5
10
137
20
24.5
10
137
20
30.500000000000004
10
140
20
30.500000000000004
10
140
20
36.5
10
137
20
36.5
10
137
20
42.5
10
140
20
42.5
10
140
20
48.500000000000007
10
137
20
48.500000000000007
10
137
20
54.5
10
140
20
54.5
10
140
20
60.500000000000007
10
137
20
60.500000000000007
10
137
20
66.5
10
140
20
66.5
10
140
20
72.5
10
137
20
72.5
10
137
20
78.5
10
140
20
78.5
10
140
20
84.500000000000014
10
140
20
88
10
133
20
88
10
133
20
85
10
127.00000000000001
20
85
10
127.00000000000001
20
88
10
121.00000000000001
20
88
10
121.00000000000001
20
85
10
115
20
85
10
115
20
88
10
109
20
88
10
109
20
85
10
103
20
85
10
103
20
88
10
97.000000000000014
20
88
10
97.000000000000014
20
85
10
91
20
85
10
91
20
88
10
85
20
88
10
85
20
85
10
79
20
85
10
79
20
88
10
73
20
88
10
73
20
85
10
67
20
85
10
67
20
88
10
61.000000000000007
20
88
10
61.000000000000007
20
85
10
55
20
85
10
55
20
88
10
49
20
88
10
49
20
85
10
43
20
85
10
43
20
88
10
37
20
88
10
37
20
85
10
31
20
85
10
31
20
88
10
25
20
88
10
25
20
85
10
19
20
85
10
19
20
88
10
13
20
88
10
13
20
85
10
7.0000000000000009
20
85
10
7.0000000000000009
20
88
10
0
20
88
10
0
20
78.5
10
3.0000000000000004
20
78.5
10
3.0000000000000004
20
72.5
10
0
20
72.5
10
0
20
66.5
10
3.0000000000000004
20
66.5
10
3.0000000000000004
20
60.500000000000007
10
0
20
60.500000000000007
10
0
20
54.5
10
3.0000000000000004
20
54.5
10
3.0000000000000004
20
48.500000000000007
10
0
20
48.500000000000007
10
0
20
42.5
10
3.0000000000000004
20
42.5
10
3.0000000000000004
20
36.5
10
0
20
36.5
10
0
20
30.500000000000004
10
3.0000000000000004
20
30.500000000000004
10
3.0000000000000004
20
24.5
10
0
20
24.5
10
0
20
18.5
10
3.0000000000000004
20
18.5
10
3.0000000000000004
20
12.5
10
0
20
12.5
10
0
20
6.5
10
0
20
3.0000000000000004
10
7.0000000000000009
20
3.0000000000000004
10
7.0000000000000009
20
6.0000000000000009
10
13
20
6.0000000000000009
10
13
20
3.0000000000000004
10
19
20
3.0000000000000004
10
19
20
6.0000000000000009
10
25
20
6.0000000000000009
10
25
20
3.0000000000000004
10
31
20
3.0000000000000004
10
31
20
6.0000000000000009
10
37
20
6.0000000000000009
10
37
20
3.0000000000000004
10
43
20
3.0000000000000004
10
43
20
6.0000000000000009
0
CIRCLE
5
101
100
AcDbEntity
8
0
100
AcDbCircle
10
46
20
49
30
0
40
3.0000000000000004
210
0
220
0
230
1
0
CIRCLE
5
102
100
AcDbEntity
8
0
100
AcDbCircle
10
46
20
49
30
0
40
4.3936875908747863
210
0
220
0
230
1
0
ARC
5
103
100
AcDbEntity
8
0
100
AcDbCircle
10
46
20
39.816881300187497
30
0
40
13.576806290687298
210
0
220
-0
230
1
100
AcDbArc
50
42.561627392866349
51
137.43837260713366
0
ARC
5
104
100
AcDbEntity
8
0
100
AcDbCircle
10
46
20
58.18311869981251
30
0
40
13.576806290687298
210
0
220
0
230
1
100
AcDbArc
50
222.56162739286634
51
317.43837260713366
0
ARC
5
105
100
AcDbEntity
8
0
100
AcDbCircle
10
46.011292190626854
20
41.322374264686957
30
0
40
16.860748216499363
210
0
220
-0
230
1
100
AcDbArc
50
27.087776852310189
51
152.91222030391842
0
ARC
5
106
100
AcDbEntity
8
0
100
AcDbCircle
10
45.600575898387774
20
48.884788012183265
30
0
40
18.216413446150302
210
0
220
0
230
1
100
AcDbArc
50
-180.36237674777368
51
0.36237674777366863
0
CIRCLE
5
107
100
AcDbEntity
8
0
100
AcDbCircle
10
46
20
41.367171704962225
30
0
40
1.499999999999996
210
0
220
0
230
1
0
CIRCLE
5
108
100
AcDbEntity
8
0
100
AcDbCircle
10
46.000000596046448
20
37.000000566244125
30
0
40
0.999999999999998
210
0
220
0
230
1
0
CIRCLE
5
109
100
AcDbEntity
8
0
100
AcDbCircle
10
46.000000596046448
20
33.500000521540649
30
0
40
0.74999999999999911
210
0
220
0
230
1
0
SPLINE
5
110
100
AcDbEntity
8
0
100
AcDbSpline
70
4
71
3
72
8
73
4
74
0
42
0.000000001
43
0.0000000001
44
0.0000000001
40
0
40
0
40
0
40
0
40
1
40
1
40
1
40
1
41
1
41
1
41
1
41
1
10
44.391622669545455
20
55.455820298173705
30
0
10
44.504725566480545
20
55.395693371551559
30
0
10
44.624034234785128
20
55.525899092615418
30
0
10
44.554787457141281
20
55.633667497395422
30
0
0
SPLINE
5
111
100
AcDbEntity
8
0
100
AcDbSpline
70
4
71
3
72
8
73
4
74
0
42
0.000000001
43
0.0000000001
44
0.0000000001
40
0
40
0
40
0
40
0
40
1
40
1
40
1
40
1
41
1
41
1
41
1
41
1
10
44.554787457141281
20
55.633667497395422
30
0
10
44.178925456523913
20
56.218650944185512
30
0
10
43.823005010491045
20
57.203014001720547
30
0
10
44.390071226703078
20
58.470739116024781
30
0
0
SPLINE
5
112
100
AcDbEntity
8
0
100
AcDbSpline
70
0
71
2
72
6
73
3
74
0
42
0.000000001
43
0.0000000001
44
0.0000000001
40
0
40
0
40
0
40
1
40
1
40
1
10
44.390071226703078
20
58.470739116024781
30
0
10
45.335724139763663
20
60.584788137309111
30
0
10
45.911152962007549
20
61.679718201580613
30
0
0
SPLINE
5
113
100
AcDbEntity
8
0
100
AcDbSpline
70
0
71
2
72
6
73
3
74
0
42
0.000000001
43
0.0000000001
44
0.0000000001
40
0
40
0
40
0
40
1
40
1
40
1
10
45.911152962007549
20
61.679718201580613
30
0
10
46.217219665926265
20
60.401945950357813
30
0
10
47.046893421344919
20
59.265827301566873
30
0
0
SPLINE
5
114
100
AcDbEntity
8
0
100
AcDbSpline
70
4
71
3
72
8
73
4
74
0
42
0.000000001
43
0.0000000001
44
0.0000000001
40
0
40
0
40
0
40
0
40
1
40
1
40
1
40
1
41
1
41
1
41
1
41
1
10
47.046893421344919
20
59.265827301566873
30
0
10
47.845406097954417
20
58.172391518678346
30
0
10
48.282474164260698
20
56.79720112854546
30
0
10
47.577860443783365
20
55.651583861890749
30
0
0
SPLINE
5
115
100
AcDbEntity
8
0
100
AcDbSpline
70
4
71
3
72
8
73
4
74
0
42
0.000000001
43
0.0000000001
44
0.0000000001
40
0
40
0
40
0
40
0
40
1
40
1
40
1
40
1
41
1
41
1
41
1
41
1
10
47.577860443783365
20
55.651583861890749
30
0
10
47.511735605644063
20
55.544062579379641
30
0
10
47.628338631537275
20
55.417204556715525
30
0
10
47.740703625996524
20
55.474702056205487
30
0
0
SPLINE
5
116
100
AcDbEntity
8
0
100
AcDbSpline
70
4
71
3
72
8
73
4
74
0
42
0.000000001
43
0.0000000001
44
0.0000000001
40
0
40
0
40
0
40
0
40
1
40
1
40
1
40
1
41
1
41
1
41
1
41
1
10
47.740703625996524
20
55.474702056205487
30
0
10
48.612909548924662
20
55.920870919713678
30
0
10
49.591180003232026
20
56.815836919085292
30
0
10
49.701558781324415
20
58.596801497365199
30
0
0
SPLINE
5
117
100
AcDbEntity
8
0
100
AcDbSpline
70
4
71
3
72
8
73
4
74
0
42
0.000000001
43
0.0000000001
44
0.0000000001
40
0
40
0
40
0
40
0
40
1
40
1
40
1
40
1
41
1
41
1
41
1
41
1
10
49.701558781324415
20
58.596801497365199
30
0
10
49.742255430859984
20
59.141012656729004
30
0
10
49.681219694772295
20
59.902915439455462
30
0
10
49.376023692679524
20
60.864365989988642
30
0
0
SPLINE
5
118
100
AcDbEntity
8
0
100
AcDbSpline
70
4
71
3
72
8
73
4
74
0
42
0.000000001
43
0.0000000001
44
0.0000000001
40
0
40
0
40
0
40
0
40
1
40
1
40
1
40
1
41
1
41
1
41
1
41
1
10
49.376023692679524
20
60.864365989988642
30
0
10
48.983606809599692
20
62.082918969277884
30
0
10
48.501187765230725
20
62.651517574512496
30
0
10
48.222063162507013
20
62.895697183031622
30
0
0
SPLINE
5
119
100
AcDbEntity
8
0
100
AcDbSpline
70
4
71
3
72
8
73
4
74
0
42
0.000000001
43
0.0000000001
44
0.0000000001
40
0
40
0
40
0
40
0
40
1
40
1
40
1
40
1
41
1
41
1
41
1
41
1
10
48.222063162507013
20
62.895697183031622
30
0
10
48.138569901538716
20
62.968746641196461
30
0
10
48.008722738720138
20
62.904002916298303
30
0
10
48.015571720854965
20
62.79328405639194
30
0
0
SPLINE
5
120
100
AcDbEntity
8
0
100
AcDbSpline
70
4
71
3
72
8
73
4
74
0
42
0.000000001
43
0.0000000001
44
0.0000000001
40
0
40
0
40
0
40
0
40
1
40
1
40
1
40
1
41
1
41
1
41
1
41
1
10
48.015571720854965
20
62.79328405639194
30
0
10
48.096908435855177
20
61.478467137761612
30
0
10
47.602267232168217
20
61.144815121882587
30
0
10
47.320720484776189
20
61.896746982969674
30
0
0
SPLINE
5
121
100
AcDbEntity
8
0
100
AcDbSpline
70
4
71
3
72
8
73
4
74
0
42
0.000000001
43
0.0000000001
44
0.0000000001
40
0
40
0
40
0
40
0
40
1
40
1
40
1
40
1
41
1
41
1
41
1
41
1
10
47.320720484776189
20
61.896746982969674
30
0
10
47.208279852426216
20
62.197080796682975
30
0
10
47.142703533341717
20
62.716544797153716
30
0
10
47.142703533341717
20
63.349149224810652
30
0
0
SPLINE
5
122
100
AcDbEntity
8
0
100
AcDbSpline
70
4
71
3
72
8
73
4
74
0
42
0.000000001
43
0.0000000001
44
0.0000000001
40
0
40
0
40
0
40
0
40
1
40
1
40
1
40
1
41
1
41
1
41
1
41
1
10
47.142703533341717
20
63.349149224810652
30
0
10
47.142703533341717
20
64.402323709076569
30
0
10
46.83714781822669
20
65.486469744383513
30
0
10
46.163505793137489
20
66.367454426089537
30
0
0
SPLINE
5
123
100
AcDbEntity
8
0
100
AcDbSpline
70
4
71
3
72
8
73
4
74
0
42
0.000000001
43
0.0000000001
44
0.0000000001
40
0
40
0
40
0
40
0
40
1
40
1
40
1
40
1
41
1
41
1
41
1
41
1
10
46.163505793137489
20
66.367454426089537
30
0
10
45.98832670607603
20
66.596555101444991
30
0
10
45.783349177015246
20
66.810633355534137
30
0
10
45.548174807904793
20
66.993191178659657
30
0
0
SPLINE
5
124
100
AcDbEntity
8
0
100
AcDbSpline
70
4
71
3
72
8
73
4
74
0
42
0.000000001
43
0.0000000001
44
0.0000000001
40
0
40
0
40
0
40
0
40
1
40
1
40
1
40
1
41
1
41
1
41
1
41
1
10
45.548174807904793
20
66.993191178659657
30
0
10
45.463035412383604
20
67.059297188521526
30
0
10
45.339620934606693
20
66.992850620951273
30
0
10
45.34741625645816
20
66.885347947941497
30
0
0
SPLINE
5
125
100
AcDbEntity
8
0
100
AcDbSpline
70
4
71
3
72
8
73
4
74
0
42
0.000000001
43
0.0000000001
44
0.0000000001
40
0
40
0
40
0
40
0
40
1
40
1
40
1
40
1
41
1
41
1
41
1
41
1
10
45.34741625645816
20
66.885347947941497
30
0
10
45.399143335491594
20
66.171387877768268
30
0
10
45.352278444837644
20
64.125223430359327
30
0
10
43.557143021123998
20
61.680701494159905
30
0
0
SPLINE
5
126
100
AcDbEntity
8
0
100
AcDbSpline
70
4
71
3
72
8
73
4
74
0
42
0.000000001
43
0.0000000001
44
0.0000000001
40
0
40
0
40
0
40
0
40
1
40
1
40
1
40
1
41
1
41
1
41
1
41
1
10
43.557143021123998
20
61.680701494159905
30
0
10
41.929485909983732
20
59.413137001536462
30
0
10
42.560198524290087
20
57.671657711763721
30
0
10
42.784001660353098
20
57.199985021761073
30
0
0
SPLINE
5
127
100
AcDbEntity
8
0
100
AcDbSpline
70
4
71
3
72
8
73
4
74
0
42
0.000000001
43
0.0000000001
44
0.0000000001
40
0
40
0
40
0
40
0
40
1
40
1
40
1
40
1
41
1
41
1
41
1
41
1
10
42.784001660353098
20
57.199985021761073
30
0
10
43.211893291566746
20
56.296391683740111
30
0
10
43.80873947334679
20
55.765746266684317
30
0
10
44.391622669545455
20
55.455820298173705
30
0
0
ARC
5
128
100
AcDbEntity
8
0
100
AcDbCircle
10
44.939025059887555
20
51.670732477270967
30
0
40
14.700753112483563
210
0
220
0
230
1
100
AcDbArc
50
198.5251309827303
51
266.33768495961465
0
LINE
5
129
100
AcDbEntity
8
0
100
AcDbLine
10
46.011292190626854
20
43.681001334255129
30
0
11
46
21
26.19107528768458
31
0
0
ARC
5
130
100
AcDbEntity
8
0
100
AcDbCircle
10
47.093875398371274
20
51.669341220342282
30
0
40
14.700753112483554
210
0
220
0
230
1
100
AcDbArc
50
273.58833019073495
51
341.40088416761927
0
LWPOLYLINE
5
131
100
AcDbEntity
8
0
100
AcDbPolyline
90
4
70
1
43
0.0
10
94.439443259629471
20
62.4355564585439
10
110.30944325962946
20
62.4355564585439
10
110.30944325962946
20
41.615556458543907
10
94.439443259629471
20
41.615556458543907
0
LWPOLYLINE
5
132
100
AcDbEntity
8
0
100
AcDbPolyline
90
4
70
1
43
0.0
10
91.939443259629471
20
64.9355564585439
10
112.80944325962946
20
64.9355564585439
10
112.80944325962946
20
39.115556458543907
10
91.939443259629471
20
39.115556458543907
0
LINE
5
133
100
AcDbEntity
8
0
100
AcDbLine
10
92.00000137090683
20
36.000000551342964
30
0
11
112.79999747872353
21
36.09999917075038
31
0
0
LINE
5
134
100
AcDbEntity
8
0
100
AcDbLine
10
96.233831071832583
20
31.944409791709816
30
0
11
108.56616777779777
21
32.003699064566966
31
0
0
LINE
5
135
100
AcDbEntity
8
0
100
AcDbLine
10
99.226455148347981
20
29.077771450276835
30
0
11
102.39999942481518
21
26.037829423295271
31
0
0
LINE
5
136
100
AcDbEntity
8
0
100
AcDbLine
10
102.39999942481518
20
26.037829423295271
30
0
11
105.57354370128238
21
29.108285883513272
31
0
0
ENDSEC
0
SECTION
2
OBJECTS
0
DICTIONARY
5
C
100
AcDbDictionary
3
ACAD_GROUP
350
D
3
ACAD_MLINESTYLE
350
17
0
DICTIONARY
5
D
100
AcDbDictionary
0
DICTIONARY
5
1A
330
C
100
AcDbDictionary
0
DICTIONARY
5
17
100
AcDbDictionary
0
ENDSEC
0
EOF
