0
SECTION
2
HEADER
9
$INSUNITS
70
4
9
$ACADVER
1
AC1014
9
$HANDSEED
5
FFFF
0
ENDSEC
0
SECTION
2
TABLES
0
TABLE
2
VPORT
5
8
100
AcDbSymbolTable
0
ENDTAB
0
TABLE
2
LTYPE
5
5
100
AcDbSymbolTable
0
LTYPE
5
14
100
AcDbSymbolTableRecord
100
AcDbLinetypeTableRecord
2
BYBLOCK
70
0
0
LTYPE
5
15
100
AcDbSymbolTableRecord
100
AcDbLinetypeTableRecord
2
BYLAYER
70
0
0
ENDTAB
0
TABLE
2
LAYER
5
2
100
AcDbSymbolTable
70
2
0
LAYER
5
50
100
AcDbSymbolTableRecord
100
AcDbLayerTableRecord
2
0
70
0
6
CONTINUOUS
0
ENDTAB
0
TABLE
2
STYLE
5
3
100
AcDbSymbolTable
70
1
0
STYLE
5
11
100
AcDbSymbolTableRecord
100
AcDbTextStyleTableRecord
2
STANDARD
70
0
0
ENDTAB
0
TABLE
2
VIEW
5
6
100
AcDbSymbolTable
70
0
0
ENDTAB
0
TABLE
2
UCS
5
7
100
AcDbSymbolTable
70
0
0
ENDTAB
0
TABLE
2
APPID
5
9
100
AcDbSymbolTable
70
2
0
APPID
5
12
100
AcDbSymbolTableRecord
100
AcDbRegAppTableRecord
2
ACAD
70
0
0
ENDTAB
0
TABLE
2
DIMSTYLE
5
A
100
AcDbSymbolTable
70
1
0
ENDTAB
0
TABLE
2
BLOCK_RECORD
5
1
100
AcDbSymbolTable
70
1
0
BLOCK_RECORD
5
1F
100
AcDbSymbolTableRecord
100
AcDbBlockTableRecord
2
*MODEL_SPACE
0
BLOCK_RECORD
5
1B
100
AcDbSymbolTableRecord
100
AcDbBlockTableRecord
2
*PAPER_SPACE
0
ENDTAB
0
ENDSEC
0
SECTION
2
BLOCKS
0
BLOCK
5
20
100
AcDbEntity
100
AcDbBlockBegin
2
*MODEL_SPACE
0
ENDBLK
5
21
100
AcDbEntity
100
AcDbBlockEnd
0
BLOCK
5
1C
100
AcDbEntity
100
AcDbBlockBegin
2
*PAPER_SPACE
0
ENDBLK
5
1D
100
AcDbEntity
100
AcDbBlockEnd
0
ENDSEC
0
SECTION
2
ENTITIES
0
LWPOLYLINE
5
100
100
AcDbEntity
8
0
100
AcDbPolyline
90
94
70
1
43
0.0
10
163
20
6.0000000000000009
10
169.00000000000003
20
6.0000000000000009
10
169.00000000000003
20
3.0000000000000004
10
175
20
3.0000000000000004
10
175
20
6.0000000000000009
10
181
20
6.0000000000000009
10
181
20
3.0000000000000004
10
187
20
3.0000000000000004
10
187
20
6.0000000000000009
10
193
20
6.0000000000000009
10
193
20
3.0000000000000004
10
199.00000000000003
20
3.0000000000000004
10
199.00000000000003
20
6.0000000000000009
10
205
20
6.0000000000000009
10
205
20
3.0000000000000004
10
210
20
3.0000000000000004
10
210
20
12.5
10
213
20
12.5
10
213
20
18.5
10
210
20
18.5
10
210
20
24.5
10
213
20
24.5
10
213
20
30.500000000000004
10
210
20
30.500000000000004
10
210
20
36.5
10
213
20
36.5
10
213
20
42.5
10
210
20
42.5
10
210
20
48.500000000000007
10
213
20
48.500000000000007
10
213
20
54.5
10
210
20
54.5
10
210
20
60.500000000000007
10
213
20
60.500000000000007
10
213
20
66.5
10
210
20
66.5
10
210
20
72.5
10
213
20
72.5
10
213
20
78.5
10
210
20
78.5
10
210
20
84.500000000000014
10
210
20
88
10
205
20
88
10
205
20
85
10
199.00000000000003
20
85
10
199.00000000000003
20
88
10
193
20
88
10
193
20
85
10
187
20
85
10
187
20
88
10
181
20
88
10
181
20
85
10
175
20
85
10
175
20
88
10
169.00000000000003
20
88
10
169.00000000000003
20
85
10
163
20
85
10
163
20
88
10
157
20
88
10
157
20
85
10
151
20
85
10
151
20
88
10
146
20
88
10
146
20
78.5
10
143
20
78.5
10
143
20
72.5
10
146
20
72.5
10
146
20
66.5
10
143
20
66.5
10
143
20
60.500000000000007
10
146
20
60.500000000000007
10
146
20
54.5
10
143
20
54.5
10
143
20
48.500000000000007
10
146
20
48.500000000000007
10
146
20
42.5
10
143
20
42.5
10
143
20
36.5
10
146
20
36.5
10
146
20
30.500000000000004
10
143
20
30.500000000000004
10
143
20
24.5
10
146
20
24.5
10
146
20
18.5
10
143
20
18.5
10
143
20
12.5
10
146
20
12.5
10
146
20
6.5
10
146
20
3.0000000000000004
10
151
20
3.0000000000000004
10
151
20
6.0000000000000009
10
157
20
6.0000000000000009
10
157
20
3.0000000000000004
10
163
20
3.0000000000000004
0
LWPOLYLINE
5
101
100
AcDbEntity
8
0
100
AcDbPolyline
90
4
70
1
43
0.0
10
196.74590550772763
20
14.046317646794604
10
198.65197591893292
20
14.046317646794604
10
198.65197591893292
20
18.054153633603235
10
196.74590550772763
20
18.054153633603235
0
LWPOLYLINE
5
102
100
AcDbEntity
8
0
100
AcDbPolyline
90
4
70
1
43
0.0
10
200.15256609651499
20
14.046317646794604
10
205.09582485887461
20
14.046317646794604
10
205.09582485887461
20
18.054153633603235
10
200.15256609651499
20
18.054153633603235
0
LWPOLYLINE
5
103
100
AcDbEntity
8
0
100
AcDbPolyline
90
4
70
1
43
0.0
10
150.78805024699304
20
14.046317646794604
10
168.61196215228176
20
14.046317646794604
10
168.61196215228176
20
18.054153633603235
10
150.78805024699304
20
18.054153633603235
0
LINE
5
104
100
AcDbEntity
8
0
100
AcDbLine
10
197.54651383742609
20
14.056317646794604
30
0
11
196.75590550772765
21
16.134599734835909
31
0
0
LINE
5
105
100
AcDbEntity
8
0
100
AcDbLine
10
196.75590550772765
20
16.134599734835909
30
0
11
197.12772620156326
21
16.134599734835909
31
0
0
LINE
5
106
100
AcDbEntity
8
0
100
AcDbLine
10
197.12772620156326
20
16.134599734835909
30
0
11
197.5739111123971
21
14.889978905015276
31
0
0
SPLINE
5
107
100
AcDbEntity
8
0
100
AcDbSpline
70
0
71
3
72
9
73
5
74
0
42
0.000000001
43
0.0000000001
44
0.0000000001
40
0
40
0
40
0
40
0
40
0.021690621690166372
40
0.043949385770451564
40
0.043949385770451564
40
0.043949385770451564
40
0.043949385770451564
10
197.5739111123971
20
14.889978905015276
30
0
10
197.59768484258089
20
14.821681660641971
30
0
10
197.64585500819325
20
14.683298262374416
30
0
10
197.68643266544811
20
14.542500332610533
30
0
10
197.70698377177038
20
14.471191306405352
30
0
0
SPLINE
5
108
100
AcDbEntity
8
0
100
AcDbSpline
70
0
71
3
72
9
73
5
74
0
42
0.000000001
43
0.0000000001
44
0.0000000001
40
0
40
0
40
0
40
0
40
0.018956003176114563
40
0.04165434336235932
40
0.04165434336235932
40
0.04165434336235932
40
0.04165434336235932
10
197.70698377177038
20
14.471191306405352
30
0
10
197.7252638480885
20
14.531687084809693
30
0
10
197.76543289472619
20
14.664621854983331
30
0
10
197.8124687146165
20
14.795290913733336
30
0
10
197.83809953614988
20
14.86649527102022
30
0
0
LINE
5
109
100
AcDbEntity
8
0
100
AcDbLine
10
197.83809953614988
20
14.86649527102022
30
0
11
198.29994001671591
21
16.134599734835909
31
0
0
LINE
5
110
100
AcDbEntity
8
0
100
AcDbLine
10
198.29994001671591
20
16.134599734835909
30
0
11
198.66197594687262
21
16.134599734835909
31
0
0
LINE
5
111
100
AcDbEntity
8
0
100
AcDbLine
10
198.66197594687262
20
16.134599734835909
30
0
11
197.87528158411303
21
14.056317646794604
31
0
0
LINE
5
112
100
AcDbEntity
8
0
100
AcDbLine
10
197.87528158411303
20
14.056317646794604
30
0
11
197.54651383742609
21
14.056317646794604
31
0
0
LINE
5
113
100
AcDbEntity
8
0
100
AcDbLine
10
201.21931971702031
20
14.115241437249468
30
0
11
200.86706848534993
21
14.115241437249468
31
0
0
LINE
5
114
100
AcDbEntity
8
0
100
AcDbLine
10
200.86706848534993
20
14.115241437249468
30
0
11
200.86706848534993
21
16.359864293628025
31
0
0
SPLINE
5
115
100
AcDbEntity
8
0
100
AcDbSpline
70
0
71
3
72
9
73
5
74
0
42
0.000000001
43
0.0000000001
44
0.0000000001
40
0
40
0
40
0
40
0
40
0.019061716143354394
40
0.041323173301928133
40
0.041323173301928133
40
0.041323173301928133
40
0.041323173301928133
10
200.86706848534993
20
16.359864293628025
30
0
10
200.81904734046989
20
16.318079837376416
30
0
10
200.71494411717612
20
16.227496895419542
30
0
10
200.59696541250747
20
16.155817274113467
30
0
10
200.53340838941983
20
16.11720231085329
30
0
0
SPLINE
5
116
100
AcDbEntity
8
0
100
AcDbSpline
70
0
71
3
72
9
73
5
74
0
42
0.000000001
43
0.0000000001
44
0.0000000001
40
0
40
0
40
0
40
0
40
0.022285270281979293
40
0.04134867578092985
40
0.04134867578092985
40
0.04134867578092985
40
0.04134867578092985
10
200.53340838941983
20
16.11720231085329
30
0
10
200.46886069642741
20
16.080240614620092
30
0
10
200.34909721157038
20
16.01166091266801
30
0
10
200.22142714233792
20
15.959331775937347
30
0
10
200.16256609651498
20
15.935205935530947
30
0
0
LINE
5
117
100
AcDbEntity
8
0
100
AcDbLine
10
200.16256609651498
20
15.935205935530947
30
0
11
200.16256609651498
21
16.2757153502038
31
0
0
SPLINE
5
118
100
AcDbEntity
8
0
100
AcDbSpline
70
0
71
3
72
9
73
5
74
0
42
0.000000001
43
0.0000000001
44
0.0000000001
40
0
40
0
40
0
40
0
40
0.031666657137206733
40
0.061824342632049972
40
0.061824342632049972
40
0.061824342632049972
40
0.061824342632049972
10
200.16256609651498
20
16.2757153502038
30
0
10
200.25701914564377
20
16.323634787939444
30
0
10
200.44142439077837
20
16.417190218323746
30
0
10
200.60124251304799
20
16.548337712613378
30
0
10
200.67920120152883
20
16.612310974889088
30
0
0
SPLINE
5
119
100
AcDbEntity
8
0
100
AcDbSpline
70
0
71
3
72
9
73
5
74
0
42
0.000000001
43
0.0000000001
44
0.0000000001
40
0
40
0
40
0
40
0
40
0.027125137375018635
40
0.049731530709326302
40
0.049731530709326302
40
0.049731530709326302
40
0.049731530709326302
10
200.67920120152883
20
16.612310974889088
30
0
10
200.74576239345319
20
16.67431870163427
30
0
10
200.8677964283217
20
16.788004362436993
30
0
10
200.95340054498124
20
16.930912063794558
30
0
10
200.99231349024228
20
16.995873420529652
30
0
0
LINE
5
120
100
AcDbEntity
8
0
100
AcDbLine
10
200.99231349024228
20
16.995873420529652
30
0
11
201.21931971702031
21
16.995873420529652
31
0
0
LINE
5
121
100
AcDbEntity
8
0
100
AcDbLine
10
201.21931971702031
20
16.995873420529652
30
0
11
201.21931971702031
21
14.115241437249468
31
0
0
LINE
5
122
100
AcDbEntity
8
0
100
AcDbLine
10
202.31912629398755
20
14.115241437249468
30
0
11
202.31912629398755
21
14.516416459374712
31
0
0
LINE
5
123
100
AcDbEntity
8
0
100
AcDbLine
10
202.31912629398755
20
14.516416459374712
30
0
11
202.7203013161128
21
14.516416459374712
31
0
0
LINE
5
124
100
AcDbEntity
8
0
100
AcDbLine
10
202.7203013161128
20
14.516416459374712
30
0
11
202.7203013161128
21
14.115241437249468
31
0
0
LINE
5
125
100
AcDbEntity
8
0
100
AcDbLine
10
202.7203013161128
20
14.115241437249468
30
0
11
202.31912629398755
21
14.115241437249468
31
0
0
SPLINE
5
126
100
AcDbEntity
8
0
100
AcDbSpline
70
0
71
3
72
9
73
5
74
0
42
0.000000001
43
0.0000000001
44
0.0000000001
40
0
40
0
40
0
40
0
40
0.045989506389843608
40
0.082819740136454878
40
0.082819740136454878
40
0.082819740136454878
40
0.082819740136454878
10
203.23497937712125
20
15.530116974406527
30
0
10
203.23705201876868
20
15.684076458125503
30
0
10
203.24078451463805
20
15.96133284624721
30
0
10
203.30923565954691
20
16.2297395968451
30
0
10
203.33967612776212
20
16.349101035886097
30
0
0
SPLINE
5
127
100
AcDbEntity
8
0
100
AcDbSpline
70
0
71
3
72
9
73
5
74
0
42
0.000000001
43
0.0000000001
44
0.0000000001
40
0
40
0
40
0
40
0
40
0.03039730078554477
40
0.057653268819273823
40
0.057653268819273823
40
0.057653268819273823
40
0.057653268819273823
10
203.33967612776212
20
16.349101035886097
30
0
10
203.37675079012016
20
16.444840026819847
30
0
10
203.44706872691296
20
16.626424102976184
30
0
10
203.58542336664996
20
16.763005680406856
30
0
10
203.65083144697599
20
16.827575533681202
30
0
0
SPLINE
5
128
100
AcDbEntity
8
0
100
AcDbSpline
70
0
71
3
72
9
73
5
74
0
42
0.000000001
43
0.0000000001
44
0.0000000001
40
0
40
0
40
0
40
0
40
0.026510048825032471
40
0.055462261247112392
40
0.055462261247112392
40
0.055462261247112392
40
0.055462261247112392
10
203.65083144697599
20
16.827575533681202
30
0
10
203.72621548974041
20
16.876636371551456
30
0
10
203.88392811793128
20
16.97927763882792
30
0
10
204.07214818503252
20
16.990181451175889
30
0
10
204.17040215525083
20
16.995873420529652
30
0
0
SPLINE
5
129
100
AcDbEntity
8
0
100
AcDbSpline
70
0
71
3
72
9
73
5
74
0
42
0.000000001
43
0.0000000001
44
0.0000000001
40
0
40
0
40
0
40
0
40
0.021797434004369159
40
0.041881906315605358
40
0.041881906315605358
40
0.041881906315605358
40
0.041881906315605358
10
204.17040215525083
20
16.995873420529652
30
0
10
204.24371402728016
20
16.992674459108528
30
0
10
204.38457652309228
20
16.986527928167327
30
0
10
204.51361189365232
20
16.930017682672755
30
0
10
204.57549081835202
20
16.902918188863087
30
0
0
SPLINE
5
130
100
AcDbEntity
8
0
100
AcDbSpline
70
0
71
3
72
9
73
5
74
0
42
0.000000001
43
0.0000000001
44
0.0000000001
40
0
40
0
40
0
40
0
40
0.019535760194306931
40
0.039649631901280985
40
0.039649631901280985
40
0.039649631901280985
40
0.039649631901280985
10
204.57549081835202
20
16.902918188863087
30
0
10
204.63128598748366
20
16.868093628305779
30
0
10
204.74452744294456
20
16.797413962222279
30
0
10
204.82323495171531
20
16.689539542195416
30
0
10
204.86316250357083
20
16.634815900616932
30
0
0
SPLINE
5
131
100
AcDbEntity
8
0
100
AcDbSpline
70
0
71
3
72
9
73
5
74
0
42
0.000000001
43
0.0000000001
44
0.0000000001
40
0
40
0
40
0
40
0
40
0.021904427370023381
40
0.046379709769220873
40
0.046379709769220873
40
0.046379709769220873
40
0.046379709769220873
10
204.86316250357083
20
16.634815900616932
30
0
10
204.89948059223235
20
16.571155815023843
30
0
10
204.97637931152042
20
16.436364056087843
30
0
10
205.01883864765202
20
16.287014577656521
30
0
10
205.04124508890561
20
16.208200573020267
30
0
0
SPLINE
5
132
100
AcDbEntity
8
0
100
AcDbSpline
70
0
71
3
72
9
73
5
74
0
42
0.000000001
43
0.0000000001
44
0.0000000001
40
0
40
0
40
0
40
0
40
0.029920146560231939
40
0.068237029827213302
40
0.068237029827213302
40
0.068237029827213302
40
0.068237029827213302
10
205.04124508890561
20
16.208200573020267
30
0
10
205.06000852419152
20
16.110051211706718
30
0
10
205.10280113186428
20
15.886208026915094
30
0
10
205.10473757162757
20
15.658167638105059
30
0
10
205.1058249333804
20
15.530116974406527
30
0
0
SPLINE
5
133
100
AcDbEntity
8
0
100
AcDbSpline
70
0
71
3
72
9
73
5
74
0
42
0.000000001
43
0.0000000001
44
0.0000000001
40
0
40
0
40
0
40
0
40
0.045695068886075288
40
0.082414073901187962
40
0.082414073901187962
40
0.082414073901187962
40
0.082414073901187962
10
205.1058249333804
20
15.530116974406527
30
0
10
205.10373116243932
20
15.377155107129113
30
0
10
205.09995490829905
20
15.101278279690822
30
0
10
205.03226503639965
20
14.834090478281578
30
0
10
205.0021062949603
20
14.715046851926134
30
0
0
SPLINE
5
134
100
AcDbEntity
8
0
100
AcDbSpline
70
0
71
3
72
9
73
5
74
0
42
0.000000001
43
0.0000000001
44
0.0000000001
40
0
40
0
40
0
40
0
40
0.030388083650619492
40
0.057682729803531854
40
0.057682729803531854
40
0.057682729803531854
40
0.057682729803531854
10
205.0021062949603
20
14.715046851926134
30
0
10
204.96528107064955
20
14.619245697901405
30
0
10
204.89537934574005
20
14.437395728485441
30
0
10
204.75727750705772
20
14.300412470484789
30
0
10
204.69192968401364
20
14.235593943887041
30
0
0
SPLINE
5
135
100
AcDbEntity
8
0
100
AcDbSpline
70
0
71
3
72
9
73
5
74
0
42
0.000000001
43
0.0000000001
44
0.0000000001
40
0
40
0
40
0
40
0
40
0.026587989305618391
40
0.055689007543624783
40
0.055689007543624783
40
0.055689007543624783
40
0.055689007543624783
10
204.69192968401364
20
14.235593943887041
30
0
10
204.61640222889366
20
14.186249284520311
30
0
10
204.45820865624006
20
14.082896034444694
30
0
10
204.26918101699897
20
14.072007560872525
30
0
10
204.17040215525083
20
14.066317646794603
30
0
0
SPLINE
5
136
100
AcDbEntity
8
0
100
AcDbSpline
70
0
71
3
72
9
73
5
74
0
42
0.000000001
43
0.0000000001
44
0.0000000001
40
0
40
0
40
0
40
0
40
0.037774494129021119
40
0.073678078395284813
40
0.073678078395284813
40
0.073678078395284813
40
0.073678078395284813
10
204.17040215525083
20
14.066317646794603
30
0
10
204.04059529869238
20
14.077403473815648
30
0
10
203.78741071014187
20
14.099026064697828
30
0
10
203.6067661465124
20
14.277031607444249
30
0
10
203.51873742136411
20
14.363774328522966
30
0
0
SPLINE
5
137
100
AcDbEntity
8
0
100
AcDbSpline
70
0
71
3
72
9
73
5
74
0
42
0.000000001
43
0.0000000001
44
0.0000000001
40
0
40
0
40
0
40
0
40
0.051652677120074382
40
0.1215830279045623
40
0.1215830279045623
40
0.1215830279045623
40
0.1215830279045623
10
203.51873742136411
20
14.363774328522966
30
0
10
203.43643928466025
20
14.517596624540998
30
0
10
203.24272121990049
20
14.879672349398941
30
0
10
203.2378062803119
20
15.292609698914729
30
0
10
203.23497937712125
20
15.530116974406527
30
0
0
SPLINE
5
138
100
AcDbEntity
8
0
100
AcDbSpline
70
0
71
3
72
9
73
5
74
0
42
0.000000001
43
0.0000000001
44
0.0000000001
40
0
40
0
40
0
40
0
40
0.058975914219809425
40
0.096297491566312093
40
0.096297491566312093
40
0.096297491566312093
40
0.096297491566312093
10
203.59701530727796
20
15.530116974406527
30
0
10
203.59501104373604
20
15.330741286214787
30
0
10
203.59173842720975
20
15.005195189877663
30
0
10
203.71471586397408
20
14.705826821985005
30
0
10
203.76237766537122
20
14.589801996045397
30
0
0
SPLINE
5
139
100
AcDbEntity
8
0
100
AcDbSpline
70
0
71
3
72
9
73
5
74
0
42
0.000000001
43
0.0000000001
44
0.0000000001
40
0
40
0
40
0
40
0
40
0.025469899295312966
40
0.04855617592112707
40
0.04855617592112707
40
0.04855617592112707
40
0.04855617592112707
10
203.76237766537122
20
14.589801996045397
30
0
10
203.8185451161616
20
14.521643477115536
30
0
10
203.92562353802728
20
14.391705113507992
30
0
10
204.09152396685261
20
14.367469428257165
30
0
10
204.17040215525083
20
14.355946450524614
30
0
0
SPLINE
5
140
100
AcDbEntity
8
0
100
AcDbSpline
70
0
71
3
72
9
73
5
74
0
42
0.000000001
43
0.0000000001
44
0.0000000001
40
0
40
0
40
0
40
0
40
0.023092456149109174
40
0.048612937501088888
40
0.048612937501088888
40
0.048612937501088888
40
0.048612937501088888
10
204.17040215525083
20
14.355946450524614
30
0
10
204.24929895850678
20
14.367546549657762
30
0
10
204.41538806314557
20
14.391966424725396
30
0
10
204.52230030368611
20
14.5223385539168
30
0
10
204.57842634710721
20
14.590780406289385
30
0
0
SPLINE
5
141
100
AcDbEntity
8
0
100
AcDbSpline
70
0
71
3
72
9
73
5
74
0
42
0.000000001
43
0.0000000001
44
0.0000000001
40
0
40
0
40
0
40
0
40
0.037344655480070613
40
0.09619856245428457
40
0.09619856245428457
40
0.09619856245428457
40
0.09619856245428457
10
204.57842634710721
20
14.590780406289385
30
0
10
204.62609400411509
20
14.706885814822767
30
0
10
204.74888426742783
20
15.005969398551082
30
0
10
204.74572284882566
20
15.331164111650725
30
0
10
204.74378870520047
20
15.530116974406527
30
0
0
SPLINE
5
142
100
AcDbEntity
8
0
100
AcDbSpline
70
0
71
3
72
9
73
5
74
0
42
0.000000001
43
0.0000000001
44
0.0000000001
40
0
40
0
40
0
40
0
40
0.059097922711772229
40
0.096396437749323577
40
0.096396437749323577
40
0.096396437749323577
40
0.096396437749323577
10
204.74378870520047
20
15.530116974406527
30
0
10
204.74586322275545
20
15.729915527224453
30
0
10
204.749247032087
20
16.055813086315499
30
0
10
204.62608228141613
20
16.355466218620954
30
0
10
204.57842634710721
20
16.471410512023258
30
0
0
SPLINE
5
143
100
AcDbEntity
8
0
100
AcDbSpline
70
0
71
3
72
9
73
5
74
0
42
0.000000001
43
0.0000000001
44
0.0000000001
40
0
40
0
40
0
40
0
40
0.025490605566287208
40
0.048854821567328025
40
0.048854821567328025
40
0.048854821567328025
40
0.048854821567328025
10
204.57842634710721
20
16.471410512023258
30
0
10
204.52185970338789
20
16.539294510790342
30
0
10
204.41344512381329
20
16.669399723019147
30
0
10
204.24638341737167
20
16.693000647277501
30
0
10
204.16648821625165
20
16.704287498288441
30
0
0
SPLINE
5
144
100
AcDbEntity
8
0
100
AcDbSpline
70
0
71
3
72
9
73
5
74
0
42
0.000000001
43
0.0000000001
44
0.0000000001
40
0
40
0
40
0
40
0
40
0.0224165745766568
40
0.045308533370122445
40
0.045308533370122445
40
0.045308533370122445
40
0.045308533370122445
10
204.16648821625165
20
16.704287498288441
30
0
10
204.08943063444315
20
16.695372100635232
30
0
10
203.93368132471466
20
16.677352238113553
30
0
10
203.83092769835116
20
16.558737445683839
30
0
10
203.77901183161191
20
16.498807786994266
30
0
0
SPLINE
5
145
100
AcDbEntity
8
0
100
AcDbSpline
70
0
71
3
72
9
73
5
74
0
42
0.000000001
43
0.0000000001
44
0.0000000001
40
0
40
0
40
0
40
0
40
0.039746162379329833
40
0.099459998207856504
40
0.099459998207856504
40
0.099459998207856504
40
0.099459998207856504
10
203.77901183161191
20
16.498807786994266
30
0
10
203.72643862198697
20
16.375911381341343
30
0
10
203.59488047845662
20
16.068377884916327
30
0
10
203.5962144293037
20
15.73204478394681
30
0
10
203.59701530727796
20
15.530116974406527
30
0
0
LINE
5
146
100
AcDbEntity
8
0
100
AcDbLine
10
152.23640947402453
20
15.240488319688128
30
0
11
152.23640947402453
21
15.577083944373415
31
0
0
LINE
5
147
100
AcDbEntity
8
0
100
AcDbLine
10
152.23640947402453
20
15.577083944373415
30
0
11
153.45167620838617
21
15.579040913873003
31
0
0
LINE
5
148
100
AcDbEntity
8
0
100
AcDbLine
10
153.45167620838617
20
15.579040913873003
30
0
11
153.45167620838617
21
14.514459340863512
31
0
0
SPLINE
5
149
100
AcDbEntity
8
0
100
AcDbSpline
70
0
71
3
72
9
73
5
74
0
42
0.000000001
43
0.0000000001
44
0.0000000001
40
0
40
0
40
0
40
0
40
0.034496010707592922
40
0.06698091051802027
40
0.06698091051802027
40
0.06698091051802027
40
0.06698091051802027
10
153.45167620838617
20
14.514459340863512
30
0
10
153.35924021191551
20
14.445308706091431
30
0
10
153.17975722007836
20
14.311038905470294
30
0
10
152.974111271167
20
14.222016852384742
30
0
10
152.87437557042574
20
14.178842275433825
30
0
0
SPLINE
5
150
100
AcDbEntity
8
0
100
AcDbSpline
70
0
71
3
72
9
73
5
74
0
42
0.000000001
43
0.0000000001
44
0.0000000001
40
0
40
0
40
0
40
0
40
0.031296396661894488
40
0.062343921673914462
40
0.062343921673914462
40
0.062343921673914462
40
0.062343921673914462
10
152.87437557042574
20
14.178842275433825
30
0
10
152.77478102571939
20
14.146022667401688
30
0
10
152.57638392073
20
14.080644435695691
30
0
10
152.36772158479647
20
14.0710805169774
30
0
10
152.26380689800715
20
14.066317646794603
30
0
0
SPLINE
5
151
100
AcDbEntity
8
0
100
AcDbSpline
70
0
71
3
72
9
73
5
74
0
42
0.000000001
43
0.0000000001
44
0.0000000001
40
0
40
0
40
0
40
0
40
0.040590723351874629
40
0.079508265904204137
40
0.079508265904204137
40
0.079508265904204137
40
0.079508265904204137
10
152.26380689800715
20
14.066317646794603
30
0
10
152.12739363463299
20
14.073204550851578
30
0
10
151.86019016739763
20
14.08669447548958
30
0
10
151.61548241874004
20
14.194545206684426
30
0
10
151.49570337296461
20
14.247335760884569
30
0
0
SPLINE
5
152
100
AcDbEntity
8
0
100
AcDbSpline
70
0
71
3
72
9
73
5
74
0
42
0.000000001
43
0.0000000001
44
0.0000000001
40
0
40
0
40
0
40
0
40
0.037532427236498619
40
0.074813135824815663
40
0.074813135824815663
40
0.074813135824815663
40
0.074813135824815663
10
151.49570337296461
20
14.247335760884569
30
0
10
151.38772217444108
20
14.314208873296948
30
0
10
151.17248397466352
20
14.447506600364015
30
0
10
151.0401301136904
20
14.663290951834504
30
0
10
150.9741758442018
20
14.770820110135363
30
0
0
SPLINE
5
153
100
AcDbEntity
8
0
100
AcDbSpline
70
0
71
3
72
9
73
5
74
0
42
0.000000001
43
0.0000000001
44
0.0000000001
40
0
40
0
40
0
40
0
40
0.038584095370800958
40
0.079088428232147581
40
0.079088428232147581
40
0.079088428232147581
40
0.079088428232147581
10
150.9741758442018
20
14.770820110135363
30
0
10
150.92281432772251
20
14.889951873278974
30
0
10
150.81753515580135
20
15.134144300469661
30
0
10
150.80464950287549
20
15.399889390929257
30
0
10
150.79805024699306
20
15.535988031916903
30
0
0
SPLINE
5
154
100
AcDbEntity
8
0
100
AcDbSpline
70
0
71
3
72
9
73
5
74
0
42
0.000000001
43
0.0000000001
44
0.0000000001
40
0
40
0
40
0
40
0
40
0.040720532496467912
40
0.080639527928518751
40
0.080639527928518751
40
0.080639527928518751
40
0.080639527928518751
10
150.79805024699306
20
15.535988031916903
30
0
10
150.8050535197824
20
15.672646094548428
30
0
10
150.81892221395375
20
15.94327226229778
30
0
10
150.92211423689295
20
16.193780732233559
30
0
10
150.9731973967049
20
16.317789970927524
30
0
0
SPLINE
5
155
100
AcDbEntity
8
0
100
AcDbSpline
70
0
71
3
72
9
73
5
74
0
42
0.000000001
43
0.0000000001
44
0.0000000001
40
0
40
0
40
0
40
0
40
0.038163514917239065
40
0.074765637384868633
40
0.074765637384868633
40
0.074765637384868633
40
0.074765637384868633
10
150.9731973967049
20
16.317789970927524
30
0
10
151.03679320483428
20
16.430361659952155
30
0
10
151.1613829115243
20
16.650899367227531
30
0
10
151.37334470260993
20
16.789215933483057
30
0
10
151.47711231173014
20
16.85692992716341
30
0
0
SPLINE
5
156
100
AcDbEntity
8
0
100
AcDbSpline
70
0
71
3
72
9
73
5
74
0
42
0.000000001
43
0.0000000001
44
0.0000000001
40
0
40
0
40
0
40
0
40
0.037757918176430393
40
0.078359499214429335
40
0.078359499214429335
40
0.078359499214429335
40
0.078359499214429335
10
151.47711231173014
20
16.85692992716341
30
0
10
151.59328129245094
20
16.908281289572884
30
0
10
151.83436829070652
20
17.014851440596114
30
0
10
152.0979032096219
20
17.02684255585293
30
0
10
152.23445250452494
20
17.033055692010212
30
0
0
SPLINE
5
157
100
AcDbEntity
8
0
100
AcDbSpline
70
0
71
3
72
9
73
5
74
0
42
0.000000001
43
0.0000000001
44
0.0000000001
40
0
40
0
40
0
40
0
40
0.029730316120277416
40
0.05742094173002496
40
0.05742094173002496
40
0.05742094173002496
40
0.05742094173002496
10
152.23445250452494
20
17.033055692010212
30
0
10
152.33407906930924
20
17.029486023379238
30
0
10
152.52649717707843
20
17.022591588297374
30
0
10
152.70904458809372
20
16.961657422237614
30
0
10
152.79707609475588
20
16.932272582345295
30
0
0
SPLINE
5
158
100
AcDbEntity
8
0
100
AcDbSpline
70
0
71
3
72
9
73
5
74
0
42
0.000000001
43
0.0000000001
44
0.0000000001
40
0
40
0
40
0
40
0
40
0.025467855422231258
40
0.048829279841182481
40
0.048829279841182481
40
0.048829279841182481
40
0.048829279841182481
10
152.79707609475588
20
16.932272582345295
30
0
10
152.87523612962158
20
16.8967742585568
30
0
10
153.02509162988181
20
16.828713655988427
30
0
10
153.13758264696583
20
16.70881382278926
30
0
10
153.19140179813837
20
16.651450066857624
30
0
0
SPLINE
5
159
100
AcDbEntity
8
0
100
AcDbSpline
70
0
71
3
72
9
73
5
74
0
42
0.000000001
43
0.0000000001
44
0.0000000001
40
0
40
0
40
0
40
0
40
0.024256765676129242
40
0.052030013838026724
40
0.052030013838026724
40
0.052030013838026724
40
0.052030013838026724
10
153.19140179813837
20
16.651450066857624
30
0
10
153.23687427355983
20
16.583982282167714
30
0
10
153.334411330108
20
16.439265965989943
30
0
10
153.38279605589355
20
16.271391854052393
30
0
10
153.40862347544169
20
16.181781857304859
30
0
0
LINE
5
160
100
AcDbEntity
8
0
100
AcDbLine
10
153.40862347544169
20
16.181781857304859
30
0
11
153.06615694225763
21
16.087848215394306
31
0
0
SPLINE
5
161
100
AcDbEntity
8
0
100
AcDbSpline
70
0
71
3
72
9
73
5
74
0
42
0.000000001
43
0.0000000001
44
0.0000000001
40
0
40
0
40
0
40
0
40
0.020866094104291657
40
0.038150522446719556
40
0.038150522446719556
40
0.038150522446719556
40
0.038150522446719556
10
153.06615694225763
20
16.087848215394306
30
0
10
153.04511182318325
20
16.154551903470264
30
0
10
153.00663398043855
20
16.276509589297884
30
0
10
152.93716187793169
20
16.383705515710883
30
0
10
152.90568693340754
20
16.432271569066334
30
0
0
SPLINE
5
162
100
AcDbEntity
8
0
100
AcDbSpline
70
0
71
3
72
9
73
5
74
0
42
0.000000001
43
0.0000000001
44
0.0000000001
40
0
40
0
40
0
40
0
40
0.016209520765001147
40
0.03424537299321119
40
0.03424537299321119
40
0.03424537299321119
40
0.03424537299321119
10
152.90568693340754
20
16.432271569066334
30
0
10
152.86885765892225
20
16.472531234786963
30
0
10
152.79104954478348
20
16.557586634583966
30
0
10
152.68668102325086
20
16.606891771617043
30
0
10
152.63171373666262
20
16.632859080128956
30
0
0
SPLINE
5
163
100
AcDbEntity
8
0
100
AcDbSpline
70
0
71
3
72
9
73
5
74
0
42
0.000000001
43
0.0000000001
44
0.0000000001
40
0
40
0
40
0
40
0
40
0.019618158016159414
40
0.040447181178641087
40
0.040447181178641087
40
0.040447181178641087
40
0.040447181178641087
10
152.63171373666262
20
16.632859080128956
30
0
10
152.56969838568773
20
16.654828557810145
30
0
10
152.44183999374937
20
16.700123505655878
30
0
10
152.3062394692019
20
16.705455781405824
30
0
10
152.23640947402453
20
16.708201735310841
30
0
0
SPLINE
5
164
100
AcDbEntity
8
0
100
AcDbSpline
70
0
71
3
72
9
73
5
74
0
42
0.000000001
43
0.0000000001
44
0.0000000001
40
0
40
0
40
0
40
0
40
0.024346958406901546
40
0.04592552247007968
40
0.04592552247007968
40
0.04592552247007968
40
0.04592552247007968
10
152.23640947402453
20
16.708201735310841
30
0
10
152.15476119140735
20
16.705772259828017
30
0
10
152.00074852274832
20
16.701189554710929
30
0
10
151.85485852817894
20
16.652039012726718
30
0
10
151.78631066144442
20
16.62894514112978
30
0
0
SPLINE
5
165
100
AcDbEntity
8
0
100
AcDbSpline
70
0
71
3
72
9
73
5
74
0
42
0.000000001
43
0.0000000001
44
0.0000000001
40
0
40
0
40
0
40
0
40
0.019447215373693622
40
0.037274717417677884
40
0.037274717417677884
40
0.037274717417677884
40
0.037274717417677884
10
151.78631066144442
20
16.62894514112978
30
0
10
151.72702559781959
20
16.601459255438982
30
0
10
151.61339318560834
20
16.548776719537994
30
0
10
151.52318968955743
20
16.462022248222215
30
0
10
151.48004776597952
20
16.420529901080418
30
0
0
SPLINE
5
166
100
AcDbEntity
8
0
100
AcDbSpline
70
0
71
3
72
9
73
5
74
0
42
0.000000001
43
0.0000000001
44
0.0000000001
40
0
40
0
40
0
40
0
40
0.017050573128706448
40
0.033780155553427879
40
0.033780155553427879
40
0.033780155553427879
40
0.033780155553427879
10
151.48004776597952
20
16.420529901080418
30
0
10
151.44350032239922
20
16.37666628485033
30
0
10
151.37109347015428
20
16.289764820119295
30
0
10
151.32289836848548
20
16.187445519495775
30
0
10
151.29902980090117
20
16.136772005849171
30
0
0
SPLINE
5
167
100
AcDbEntity
8
0
100
AcDbSpline
70
0
71
3
72
9
73
5
74
0
42
0.000000001
43
0.0000000001
44
0.0000000001
40
0
40
0
40
0
40
0
40
0.028931827123016746
40
0.059046995049278225
40
0.059046995049278225
40
0.059046995049278225
40
0.059046995049278225
10
151.29902980090117
20
16.136772005849171
30
0
10
151.26706981645265
20
16.045181569236821
30
0
10
151.20184265207479
20
15.858254555114431
30
0
10
151.19362940201111
20
15.660387558754516
30
0
10
151.18944047749972
20
15.559471367888735
30
0
0
SPLINE
5
168
100
AcDbEntity
8
0
100
AcDbSpline
70
0
71
3
72
9
73
5
74
0
42
0.000000001
43
0.0000000001
44
0.0000000001
40
0
40
0
40
0
40
0
40
0.035379597522923828
40
0.065989999124276069
40
0.065989999124276069
40
0.065989999124276069
40
0.065989999124276069
10
151.18944047749972
20
15.559471367888735
30
0
10
151.19316738148439
20
15.440490703704054
30
0
10
151.20011880003932
20
15.218568056894242
30
0
10
151.28306086683347
20
15.012963900001473
30
0
10
151.32153472662901
20
14.917591481499956
30
0
0
SPLINE
5
169
100
AcDbEntity
8
0
100
AcDbSpline
70
0
71
3
72
9
73
5
74
0
42
0.000000001
43
0.0000000001
44
0.0000000001
40
0
40
0
40
0
40
0
40
0.027739939682331894
40
0.05504738614078622
40
0.05504738614078622
40
0.05504738614078622
40
0.05504738614078622
10
151.32153472662901
20
14.917591481499956
30
0
10
151.37024565736641
20
14.837197530803916
30
0
10
151.46690806702867
20
14.677663050987913
30
0
10
151.6267717964912
20
14.581655605593578
30
0
10
151.70607565701937
20
14.534029035859392
30
0
0
SPLINE
5
170
100
AcDbEntity
8
0
100
AcDbSpline
70
0
71
3
72
9
73
5
74
0
42
0.000000001
43
0.0000000001
44
0.0000000001
40
0
40
0
40
0
40
0
40
0.02767062978688099
40
0.055440730392389753
40
0.055440730392389753
40
0.055440730392389753
40
0.055440730392389753
10
151.70607565701937
20
14.534029035859392
30
0
10
151.79161376626223
20
14.49749931976524
30
0
10
151.96299747849915
20
14.4243085699744
30
0
10
152.14907479559261
20
14.413965162632607
30
0
10
152.24228038252329
20
14.408784179978655
30
0
0
SPLINE
5
171
100
AcDbEntity
8
0
100
AcDbSpline
70
0
71
3
72
9
73
5
74
0
42
0.000000001
43
0.0000000001
44
0.0000000001
40
0
40
0
40
0
40
0
40
0.024479309572183448
40
0.049298972352848316
40
0.049298972352848316
40
0.049298972352848316
40
0.049298972352848316
10
152.24228038252329
20
14.408784179978655
30
0
10
152.32424953556699
20
14.412846935539552
30
0
10
152.48932751694437
20
14.421028934034341
30
0
10
152.64521071310412
20
14.476013929860546
30
0
10
152.72369040907358
20
14.503696232133196
30
0
0
SPLINE
5
172
100
AcDbEntity
8
0
100
AcDbSpline
70
0
71
3
72
9
73
5
74
0
42
0.000000001
43
0.0000000001
44
0.0000000001
40
0
40
0
40
0
40
0
40
0.022857639878762603
40
0.041112066536333036
40
0.041112066536333036
40
0.041112066536333036
40
0.041112066536333036
10
152.72369040907358
20
14.503696232133196
30
0
10
152.79427051244969
20
14.533363555318118
30
0
10
152.92121686043362
20
14.586723612226997
30
0
10
153.03107623114275
20
14.669490857663128
30
0
10
153.07985557974314
20
14.706240861707018
30
0
0
LINE
5
173
100
AcDbEntity
8
0
100
AcDbLine
10
153.07985557974314
20
14.706240861707018
30
0
11
153.07985557974314
21
15.240488319688128
31
0
0
LINE
5
174
100
AcDbEntity
8
0
100
AcDbLine
10
153.07985557974314
20
15.240488319688128
30
0
11
152.23640947402453
21
15.240488319688128
31
0
0
SPLINE
5
175
100
AcDbEntity
8
0
100
AcDbSpline
70
0
71
3
72
9
73
5
74
0
42
0.000000001
43
0.0000000001
44
0.0000000001
40
0
40
0
40
0
40
0
40
0.064392289721657614
40
0.12049454029978535
40
0.12049454029978535
40
0.12049454029978535
40
0.12049454029978535
10
153.89590366543268
20
15.512504546933458
30
0
10
153.9069998923637
20
15.732226320280409
30
0
10
153.92776378768241
20
16.143382286122538
30
0
10
154.16773536116725
20
16.476024203362581
30
0
10
154.27946611107325
20
16.63090225964098
30
0
0
SPLINE
5
176
100
AcDbEntity
8
0
100
AcDbSpline
70
0
71
3
72
9
73
5
74
0
42
0.000000001
43
0.0000000001
44
0.0000000001
40
0
40
0
40
0
40
0
40
0.053373656008744046
40
0.10938057172326937
40
0.10938057172326937
40
0.10938057172326937
40
0.10938057172326937
10
154.27946611107325
20
16.63090225964098
30
0
10
154.41894591226006
20
16.748748691318394
30
0
10
154.7047869345644
20
16.990255663790187
30
0
10
155.07838655562838
20
17.019856027010253
30
0
10
155.26968343914484
20
17.035012512498188
30
0
0
SPLINE
5
177
100
AcDbEntity
8
0
100
AcDbSpline
70
0
71
3
72
9
73
5
74
0
42
0.000000001
43
0.0000000001
44
0.0000000001
40
0
40
0
40
0
40
0
40
0.038066137734271643
40
0.074793039145734083
40
0.074793039145734083
40
0.074793039145734083
40
0.074793039145734083
10
155.26968343914484
20
17.035012512498188
30
0
10
155.39785347062994
20
17.027685162721177
30
0
10
155.64968427755591
20
17.013288252729094
30
0
10
155.87519254799528
20
16.900548789362691
30
0
10
155.98592771948313
20
16.845188408189106
30
0
0
SPLINE
5
178
100
AcDbEntity
8
0
100
AcDbSpline
70
0
71
3
72
9
73
5
74
0
42
0.000000001
43
0.0000000001
44
0.0000000001
40
0
40
0
40
0
40
0
40
0.036144382720666807
40
0.072666759253104646
40
0.072666759253104646
40
0.072666759253104646
40
0.072666759253104646
10
155.98592771948313
20
16.845188408189106
30
0
10
156.08607923522948
20
16.775384184175177
30
0
10
156.28742963979494
20
16.635045731573257
30
0
10
156.4104162977529
20
16.422605597807973
30
0
10
156.47222949923014
20
16.315833001427936
30
0
0
SPLINE
5
179
100
AcDbEntity
8
0
100
AcDbSpline
70
0
71
3
72
9
73
5
74
0
42
0.000000001
43
0.0000000001
44
0.0000000001
40
0
40
0
40
0
40
0
40
0.038339918628931206
40
0.079331868862624083
40
0.079331868862624083
40
0.079331868862624083
40
0.079331868862624083
10
156.47222949923014
20
16.315833001427936
30
0
10
156.52101602204465
20
16.196612640764826
30
0
10
156.62196370708392
20
15.949925262280315
30
0
10
156.63355821835907
20
15.683459520915298
30
0
10
156.63954927385782
20
15.545772730403231
30
0
0
SPLINE
5
180
100
AcDbEntity
8
0
100
AcDbSpline
70
0
71
3
72
9
73
5
74
0
42
0.000000001
43
0.0000000001
44
0.0000000001
40
0
40
0
40
0
40
0
40
0.041574397479635761
40
0.080618593655310988
40
0.080618593655310988
40
0.080618593655310988
40
0.080618593655310988
10
156.63954927385782
20
15.545772730403231
30
0
10
156.63317690887175
20
15.406064657691392
30
0
10
156.62081999849954
20
15.135151090036214
30
0
10
156.51477965256768
20
14.885740494924919
30
0
10
156.46342350901102
20
14.764949052624987
30
0
0
SPLINE
5
181
100
AcDbEntity
8
0
100
AcDbSpline
70
0
71
3
72
9
73
5
74
0
42
0.000000001
43
0.0000000001
44
0.0000000001
40
0
40
0
40
0
40
0
40
0.036993842247802056
40
0.073027836302420365
40
0.073027836302420365
40
0.073027836302420365
40
0.073027836302420365
10
156.46342350901102
20
14.764949052624987
30
0
10
156.39932357244473
20
14.657513689212218
30
0
10
156.27278684659723
20
14.445430497640928
30
0
10
156.06629152265185
20
14.310165424090915
30
0
10
155.96440090597605
20
14.243421821885393
30
0
0
SPLINE
5
182
100
AcDbEntity
8
0
100
AcDbSpline
70
0
71
3
72
9
73
5
74
0
42
0.000000001
43
0.0000000001
44
0.0000000001
40
0
40
0
40
0
40
0
40
0.036094612795286099
40
0.072470828559894715
40
0.072470828559894715
40
0.072470828559894715
40
0.072470828559894715
10
155.96440090597605
20
14.243421821885393
30
0
10
155.85440833153595
20
14.191766696619371
30
0
10
155.63356504252994
20
14.088053443103522
30
0
10
155.38998805374118
20
14.073581656775358
30
0
10
155.26772632063364
20
14.066317646794603
30
0
0
SPLINE
5
183
100
AcDbEntity
8
0
100
AcDbSpline
70
0
71
3
72
9
73
5
74
0
42
0.000000001
43
0.0000000001
44
0.0000000001
40
0
40
0
40
0
40
0
40
0.038666995980742982
40
0.075746449107203018
40
0.075746449107203018
40
0.075746449107203018
40
0.075746449107203018
10
155.26772632063364
20
14.066317646794603
30
0
10
155.1374495862581
20
14.073765925979686
30
0
10
154.88224486243772
20
14.088356681892298
30
0
10
154.65492985626949
20
14.204941922554877
30
0
10
154.54365446032023
20
14.262012808614061
30
0
0
SPLINE
5
184
100
AcDbEntity
8
0
100
AcDbSpline
70
0
71
3
72
9
73
5
74
0
42
0.000000001
43
0.0000000001
44
0.0000000001
40
0
40
0
40
0
40
0
40
0.036350669350859309
40
0.072810727566657893
40
0.072810727566657893
40
0.072810727566657893
40
0.072810727566657893
10
154.54365446032023
20
14.262012808614061
30
0
10
154.44372744175953
20
14.333281541202252
30
0
10
154.24357269757189
20
14.4760334730144
30
0
10
154.12144380242663
20
14.689411343039611
30
0
10
154.06028761328196
20
14.796260564618395
30
0
0
SPLINE
5
185
100
AcDbEntity
8
0
100
AcDbSpline
70
0
71
3
72
9
73
5
74
0
42
0.000000001
43
0.0000000001
44
0.0000000001
40
0
40
0
40
0
40
0
40
0.036951158187059643
40
0.073970640396476994
40
0.073970640396476994
40
0.073970640396476994
40
0.073970640396476994
10
154.06028761328196
20
14.796260564618395
30
0
10
154.01234226960557
20
14.910800251224224
30
0
10
153.91636292958549
20
15.140091412441787
30
0
10
153.90272761829928
20
15.388290417935499
30
0
10
153.89590366543268
20
15.512504546933458
30
0
0
SPLINE
5
186
100
AcDbEntity
8
0
100
AcDbSpline
70
0
71
3
72
9
73
5
74
0
42
0.000000001
43
0.0000000001
44
0.0000000001
40
0
40
0
40
0
40
0
40
0.046876611488863816
40
0.087948163544413344
40
0.087948163544413344
40
0.087948163544413344
40
0.087948163544413344
10
154.2872939890716
20
15.506633638434694
30
0
10
154.2955203685693
20
15.346775414408667
30
0
10
154.31095439731982
20
15.046855330938032
30
0
10
154.48491858551887
20
14.803331608440438
30
0
10
154.56615938604807
20
14.689606695466326
30
0
0
SPLINE
5
187
100
AcDbEntity
8
0
100
AcDbSpline
70
0
71
3
72
9
73
5
74
0
42
0.000000001
43
0.0000000001
44
0.0000000001
40
0
40
0
40
0
40
0
40
0.038588183334211559
40
0.077831428595152047
40
0.077831428595152047
40
0.077831428595152047
40
0.077831428595152047
10
154.56615938604807
20
14.689606695466326
30
0
10
154.66560732949713
20
14.602564948027595
30
0
10
154.86619141614494
20
14.427003857423754
30
0
10
155.13183155921564
20
14.403182518262332
30
0
10
155.26576950014567
20
14.391171603493975
30
0
0
SPLINE
5
188
100
AcDbEntity
8
0
100
AcDbSpline
70
0
71
3
72
9
73
5
74
0
42
0.000000001
43
0.0000000001
44
0.0000000001
40
0
40
0
40
0
40
0
40
0.039785496949870693
40
0.078541549135640737
40
0.078541549135640737
40
0.078541549135640737
40
0.078541549135640737
10
155.26576950014567
20
14.391171603493975
30
0
10
155.40168427382821
20
14.403057128339567
30
0
10
155.669997043401
20
14.42652064155995
30
0
10
155.87171369892155
20
14.604646396589644
30
0
10
155.97125007570719
20
14.69254192619829
30
0
0
SPLINE
5
189
100
AcDbEntity
8
0
100
AcDbSpline
70
0
71
3
72
9
73
5
74
0
42
0.000000001
43
0.0000000001
44
0.0000000001
40
0
40
0
40
0
40
0
40
0.041949861995315009
40
0.09150631150817104
40
0.09150631150817104
40
0.09150631150817104
40
0.09150631150817104
10
155.97125007570719
20
14.69254192619829
30
0
10
156.05186794840517
20
14.810146763794222
30
0
10
156.22772178489825
20
15.066681216878312
30
0
10
156.2409792144469
20
15.378733611284602
30
0
10
156.24815895021891
20
15.547729699902819
30
0
0
SPLINE
5
190
100
AcDbEntity
8
0
100
AcDbSpline
70
0
71
3
72
9
73
5
74
0
42
0.000000001
43
0.0000000001
44
0.0000000001
40
0
40
0
40
0
40
0
40
0.032936654540943952
40
0.062646024832086672
40
0.062646024832086672
40
0.062646024832086672
40
0.062646024832086672
10
156.24815895021891
20
15.547729699902819
30
0
10
156.24432508809653
20
15.658276806070182
30
0
10
156.23703302322025
20
15.868539106677153
30
0
10
156.16427036559168
20
16.065750855638882
30
0
10
156.12976326406931
20
16.159276931577015
30
0
0
SPLINE
5
191
100
AcDbEntity
8
0
100
AcDbSpline
70
0
71
3
72
9
73
5
74
0
42
0.000000001
43
0.0000000001
44
0.0000000001
40
0
40
0
40
0
40
0
40
0.02739208027590375
40
0.053893007946173063
40
0.053893007946173063
40
0.053893007946173063
40
0.053893007946173063
10
156.12976326406931
20
16.159276931577015
30
0
10
156.08637867041577
20
16.241056441296745
30
0
10
156.001020923689
20
16.401954909860187
30
0
10
155.85512507527739
20
16.510828897568469
30
0
10
155.78338338793253
20
16.564365743689823
30
0
0
SPLINE
5
192
100
AcDbEntity
8
0
100
AcDbSpline
70
0
71
3
72
9
73
5
74
0
42
0.000000001
43
0.0000000001
44
0.0000000001
40
0
40
0
40
0
40
0
40
0.026489014286923379
40
0.05370905112883289
40
0.05370905112883289
40
0.05370905112883289
40
0.05370905112883289
10
155.78338338793253
20
16.564365743689823
30
0
10
155.70443719217107
20
16.60631569875903
30
0
10
155.5443661069034
20
16.691373310086476
30
0
10
155.36337004179876
20
16.702541590533674
30
0
10
155.27164025963282
20
16.708201735310841
30
0
0
SPLINE
5
193
100
AcDbEntity
8
0
100
AcDbSpline
70
0
71
3
72
9
73
5
74
0
42
0.000000001
43
0.0000000001
44
0.0000000001
40
0
40
0
40
0
40
0
40
0.03813371517866726
40
0.076176537312594661
40
0.076176537312594661
40
0.076176537312594661
40
0.076176537312594661
10
155.27164025963282
20
16.708201735310841
30
0
10
155.14200937341289
20
16.696719044034811
30
0
10
154.88305658072721
20
16.673781030879287
30
0
10
154.67953871714658
20
16.512058127484387
30
0
10
154.5779012030456
20
16.431293158822346
30
0
0
SPLINE
5
194
100
AcDbEntity
8
0
100
AcDbSpline
70
0
71
3
72
9
73
5
74
0
42
0.000000001
43
0.0000000001
44
0.0000000001
40
0
40
0
40
0
40
0
40
0.042909540084247105
40
0.098887046129486345
40
0.098887046129486345
40
0.098887046129486345
40
0.098887046129486345
10
154.5779012030456
20
16.431293158822346
30
0
10
154.49351432376301
20
16.3121256747784
30
0
10
154.29904080556736
20
16.037498622876839
30
0
10
154.291540005879
20
15.698520661375158
30
0
10
154.2872939890716
20
15.506633638434694
30
0
0
LINE
5
195
100
AcDbEntity
8
0
100
AcDbLine
10
157.12487294138407
20
14.115241437249468
30
0
11
157.12487294138407
21
16.984131901555347
31
0
0
LINE
5
196
100
AcDbEntity
8
0
100
AcDbLine
10
157.12487294138407
20
16.984131901555347
30
0
11
157.51430644453501
21
16.984131901555347
31
0
0
LINE
5
197
100
AcDbEntity
8
0
100
AcDbLine
10
157.51430644453501
20
16.984131901555347
30
0
11
159.02115895212626
21
14.731681018166826
31
0
0
LINE
5
198
100
AcDbEntity
8
0
100
AcDbLine
10
159.02115895212626
20
14.731681018166826
30
0
11
159.02115895212626
21
16.984131901555347
31
0
0
LINE
5
199
100
AcDbEntity
8
0
100
AcDbLine
10
159.02115895212626
20
16.984131901555347
30
0
11
159.38515140474772
21
16.984131901555347
31
0
0
LINE
5
200
100
AcDbEntity
8
0
100
AcDbLine
10
159.38515140474772
20
16.984131901555347
30
0
11
159.38515140474772
21
14.115241437249468
31
0
0
LINE
5
201
100
AcDbEntity
8
0
100
AcDbLine
10
159.38515140474772
20
14.115241437249468
30
0
11
158.99571849764322
21
14.115241437249468
31
0
0
LINE
5
202
100
AcDbEntity
8
0
100
AcDbLine
10
158.99571849764322
20
14.115241437249468
30
0
11
157.48886599005198
21
16.369649141125965
31
0
0
LINE
5
203
100
AcDbEntity
8
0
100
AcDbLine
10
157.48886599005198
20
16.369649141125965
30
0
11
157.48886599005198
21
14.115241437249468
31
0
0
LINE
5
204
100
AcDbEntity
8
0
100
AcDbLine
10
157.48886599005198
20
14.115241437249468
30
0
11
157.12487294138407
21
14.115241437249468
31
0
0
LINE
5
205
100
AcDbEntity
8
0
100
AcDbLine
10
160.0231183952186
20
14.115241437249468
30
0
11
160.0231183952186
21
16.984131901555347
31
0
0
LINE
5
206
100
AcDbEntity
8
0
100
AcDbLine
10
160.0231183952186
20
16.984131901555347
30
0
11
161.01137830675577
21
16.984131901555347
31
0
0
SPLINE
5
207
100
AcDbEntity
8
0
100
AcDbSpline
70
0
71
3
72
9
73
5
74
0
42
0.000000001
43
0.0000000001
44
0.0000000001
40
0
40
0
40
0
40
0
40
0.029518965051258707
40
0.051313341706949969
40
0.051313341706949969
40
0.051313341706949969
40
0.051313341706949969
10
161.01137830675577
20
16.984131901555347
30
0
10
161.10998254679197
20
16.983724736588485
30
0
10
161.28138805013347
20
16.98301695448842
30
0
10
161.45037036793588
20
16.954954843062193
30
0
10
161.52214242876505
20
16.943035989098835
30
0
0
SPLINE
5
208
100
AcDbEntity
8
0
100
AcDbSpline
70
0
71
3
72
9
73
5
74
0
42
0.000000001
43
0.0000000001
44
0.0000000001
40
0
40
0
40
0
40
0
40
0.024199137429181446
40
0.04717236407593569
40
0.04717236407593569
40
0.04717236407593569
40
0.04717236407593569
10
161.52214242876505
20
16.943035989098835
30
0
10
161.6005186461083
20
16.920959661037646
30
0
10
161.75330059836713
20
16.877925375711992
30
0
10
161.88079587630074
20
16.783528149136444
30
0
10
161.94288684786295
20
16.737556128793049
30
0
0
SPLINE
5
209
100
AcDbEntity
8
0
100
AcDbSpline
70
0
71
3
72
9
73
5
74
0
42
0.000000001
43
0.0000000001
44
0.0000000001
40
0
40
0
40
0
40
0
40
0.029508474595555782
40
0.060132338078156031
40
0.060132338078156031
40
0.060132338078156031
40
0.060132338078156031
10
161.94288684786295
20
16.737556128793049
30
0
10
162.0141173614486
20
16.668293112128062
30
0
10
162.15927082610978
20
16.527149010594623
30
0
10
162.24086494581564
20
16.341755727512663
30
0
10
162.28241874636149
20
16.247339664988804
30
0
0
SPLINE
5
210
100
AcDbEntity
8
0
100
AcDbSpline
70
0
71
3
72
9
73
5
74
0
42
0.000000001
43
0.0000000001
44
0.0000000001
40
0
40
0
40
0
40
0
40
0.033066751105828129
40
0.06940386601464682
40
0.06940386601464682
40
0.06940386601464682
40
0.06940386601464682
10
162.28241874636149
20
16.247339664988804
30
0
10
162.3152183724024
20
16.14155816225777
30
0
10
162.38406156911651
20
15.919533167456315
30
0
10
162.39120353075771
20
15.687057386234455
30
0
10
162.39494277895426
20
15.565342276387499
30
0
0
SPLINE
5
211
100
AcDbEntity
8
0
100
AcDbSpline
70
0
71
3
72
9
73
5
74
0
42
0.000000001
43
0.0000000001
44
0.0000000001
40
0
40
0
40
0
40
0
40
0.03088098282287513
40
0.058582582473855227
40
0.058582582473855227
40
0.058582582473855227
40
0.058582582473855227
10
162.39494277895426
20
15.565342276387499
30
0
10
162.39251222542603
20
15.46206868503107
30
0
10
162.38790135849402
20
15.266154140545535
30
0
10
162.34086460114054
20
15.076001177216334
30
0
10
162.31862260759806
20
14.986084668927477
30
0
0
SPLINE
5
212
100
AcDbEntity
8
0
100
AcDbSpline
70
0
71
3
72
9
73
5
74
0
42
0.000000001
43
0.0000000001
44
0.0000000001
40
0
40
0
40
0
40
0
40
0.024656615653085665
40
0.046293432180421701
40
0.046293432180421701
40
0.046293432180421701
40
0.046293432180421701
10
162.31862260759806
20
14.986084668927477
30
0
10
162.29285077445559
20
14.907646172287397
30
0
10
162.24446349265946
20
14.760375870651842
30
0
10
162.16163852365398
20
14.629462577190804
30
0
10
162.1229274457786
20
14.568275778584765
30
0
0
SPLINE
5
213
100
AcDbEntity
8
0
100
AcDbSpline
70
0
71
3
72
9
73
5
74
0
42
0.000000001
43
0.0000000001
44
0.0000000001
40
0
40
0
40
0
40
0
40
0.019353347317898721
40
0.037024389849280109
40
0.037024389849280109
40
0.037024389849280109
40
0.037024389849280109
10
162.1229274457786
20
14.568275778584765
30
0
10
162.08337097411243
20
14.516890186770361
30
0
10
162.0076965078832
20
14.418585735725198
30
0
10
161.9088512861419
20
14.343728849412445
30
0
10
161.86167432726359
20
14.308001070313738
30
0
0
SPLINE
5
214
100
AcDbEntity
8
0
100
AcDbSpline
70
0
71
3
72
9
73
5
74
0
42
0.000000001
43
0.0000000001
44
0.0000000001
40
0
40
0
40
0
40
0
40
0.017739206268390841
40
0.037287451510713568
40
0.037287451510713568
40
0.037287451510713568
40
0.037287451510713568
10
161.86167432726359
20
14.308001070313738
30
0
10
161.810452210715
20
14.277929548043822
30
0
10
161.70278436142215
20
14.214719818615798
30
0
10
161.5823474906372
20
14.181553129986181
30
0
10
161.51920749605631
20
14.164165227704332
30
0
0
SPLINE
5
215
100
AcDbEntity
8
0
100
AcDbSpline
70
0
71
3
72
9
73
5
74
0
42
0.000000001
43
0.0000000001
44
0.0000000001
40
0
40
0
40
0
40
0
40
0.0218610271030217
40
0.046426793536656727
40
0.046426793536656727
40
0.046426793536656727
40
0.046426793536656727
10
161.51920749605631
20
14.164165227704332
30
0
10
161.4475932931249
20
14.149908972050252
30
0
10
161.29550447322998
20
14.119632616106923
30
0
10
161.14041037294808
20
14.116760929914978
30
0
10
161.05834557474589
20
14.115241437249468
30
0
0
LINE
5
216
100
AcDbEntity
8
0
100
AcDbLine
10
161.05834557474589
20
14.115241437249468
30
0
11
160.0231183952186
21
14.115241437249468
31
0
0
LINE
5
217
100
AcDbEntity
8
0
100
AcDbLine
10
160.40276719988321
20
14.453794031434343
30
0
11
161.01529313982462
21
14.453794031434343
31
0
0
SPLINE
5
218
100
AcDbEntity
8
0
100
AcDbSpline
70
0
71
3
72
9
73
5
74
0
42
0.000000001
43
0.0000000001
44
0.0000000001
40
0
40
0
40
0
40
0
40
0.025352463359919822
40
0.044959690687517539
40
0.044959690687517539
40
0.044959690687517539
40
0.044959690687517539
10
161.01529313982462
20
14.453794031434343
30
0
10
161.10014591450755
20
14.454623058014079
30
0
10
161.25062259401454
20
14.456093241722359
30
0
10
161.3967654223346
20
14.491284579010253
30
0
10
161.46049930513834
20
14.506631760888384
30
0
0
SPLINE
5
219
100
AcDbEntity
8
0
100
AcDbSpline
70
0
71
3
72
9
73
5
74
0
42
0.000000001
43
0.0000000001
44
0.0000000001
40
0
40
0
40
0
40
0
40
0.015838899363773397
40
0.029929104097445688
40
0.029929104097445688
40
0.029929104097445688
40
0.029929104097445688
10
161.46049930513834
20
14.506631760888384
30
0
10
161.51051429127548
20
14.525001501940892
30
0
10
161.60502235601865
20
14.559712871688033
30
0
10
161.68172639769392
20
14.624744139135515
30
0
10
161.71783759058451
20
14.655359952740953
30
0
0
SPLINE
5
220
100
AcDbEntity
8
0
100
AcDbSpline
70
0
71
3
72
9
73
5
74
0
42
0.000000001
43
0.0000000001
44
0.0000000001
40
0
40
0
40
0
40
0
40
0.019868191484834832
40
0.042244249286220448
40
0.042244249286220448
40
0.042244249286220448
40
0.042244249286220448
10
161.71783759058451
20
14.655359952740953
30
0
10
161.76100542380988
20
14.706271569277373
30
0
10
161.8527899583666
20
14.814521131003746
30
0
10
161.9020941901216
20
14.947786108953526
30
0
10
161.92820980013346
20
15.018374293141649
30
0
0
SPLINE
5
221
100
AcDbEntity
8
0
100
AcDbSpline
70
0
71
3
72
9
73
5
74
0
42
0.000000001
43
0.0000000001
44
0.0000000001
40
0
40
0
40
0
40
0
40
0.025845508994632005
40
0.055968111594609057
40
0.055968111594609057
40
0.055968111594609057
40
0.055968111594609057
10
161.92820980013346
20
15.018374293141649
30
0
10
161.95015096127153
20
15.101999344842456
30
0
10
161.99766425866284
20
15.283088300245417
30
0
10
162.00149221212357
20
15.470399992426479
30
0
10
162.00355245531534
20
15.571213035874651
30
0
0
SPLINE
5
222
100
AcDbEntity
8
0
100
AcDbSpline
70
0
71
3
72
9
73
5
74
0
42
0.000000001
43
0.0000000001
44
0.0000000001
40
0
40
0
40
0
40
0
40
0.039970516090319236
40
0.071369622584180809
40
0.071369622584180809
40
0.071369622584180809
40
0.071369622584180809
10
162.00355245531534
20
15.571213035874651
30
0
10
162.00095931240691
20
15.706118969856337
30
0
10
161.99632910872714
20
15.947001163393269
30
0
10
161.8987383709524
20
16.166449048664845
30
0
10
161.85580326975321
20
16.262995271973896
30
0
0
SPLINE
5
223
100
AcDbEntity
8
0
100
AcDbSpline
70
0
71
3
72
9
73
5
74
0
42
0.000000001
43
0.0000000001
44
0.0000000001
40
0
40
0
40
0
40
0
40
0.025982495630957714
40
0.049026018375624994
40
0.049026018375624994
40
0.049026018375624994
40
0.049026018375624994
10
161.85580326975321
20
16.262995271973896
30
0
10
161.80626371094581
20
16.335934199491263
30
0
10
161.71278818977544
20
16.473561671907902
30
0
10
161.56579421474444
20
16.550641339866537
30
0
10
161.49670316637491
20
16.586870818429279
30
0
0
SPLINE
5
224
100
AcDbEntity
8
0
100
AcDbSpline
70
0
71
3
72
9
73
5
74
0
42
0.000000001
43
0.0000000001
44
0.0000000001
40
0
40
0
40
0
40
0
40
0.020393026616617065
40
0.049637348596452552
40
0.049637348596452552
40
0.049637348596452552
40
0.049637348596452552
10
161.49670316637491
20
16.586870818429279
30
0
10
161.43064159303367
20
16.603862103610084
30
0
10
161.26984538527034
20
16.645219493147067
30
0
10
161.10350781993964
20
16.64544591107035
30
0
10
161.00550844133829
20
16.645579307370472
30
0
0
LINE
5
225
100
AcDbEntity
8
0
100
AcDbLine
10
161.00550844133829
20
16.645579307370472
30
0
11
160.40276719988321
21
16.645579307370472
31
0
0
LINE
5
226
100
AcDbEntity
8
0
100
AcDbLine
10
160.40276719988321
20
16.645579307370472
30
0
11
160.40276719988321
21
14.453794031434343
31
0
0
SPLINE
5
227
100
AcDbEntity
8
0
100
AcDbSpline
70
0
71
3
72
9
73
5
74
0
42
0.000000001
43
0.0000000001
44
0.0000000001
40
0
40
0
40
0
40
0
40
0.064392289721657614
40
0.12049450973674136
40
0.12049450973674136
40
0.12049450973674136
40
0.12049450973674136
10
162.80198885858988
20
15.512504546933458
30
0
10
162.81308512513974
20
15.73222629535233
30
0
10
162.83384908932885
20
16.14338211025926
30
0
10
163.07382020429299
20
16.476024178258402
30
0
10
163.185550708184
20
16.63090225964098
30
0
0
SPLINE
5
228
100
AcDbEntity
8
0
100
AcDbSpline
70
0
71
3
72
9
73
5
74
0
42
0.000000001
43
0.0000000001
44
0.0000000001
40
0
40
0
40
0
40
0
40
0.053373729602464295
40
0.10938061600353735
40
0.10938061600353735
40
0.10938061600353735
40
0.10938061600353735
10
163.185550708184
20
16.63090225964098
30
0
10
163.32503081520355
20
16.748748692805727
30
0
10
163.61087218584916
20
16.99025543309514
30
0
10
163.98447188590424
20
17.01985595819194
30
0
10
164.17576863230204
20
17.035012512498188
30
0
0
SPLINE
5
229
100
AcDbEntity
8
0
100
AcDbSpline
70
0
71
3
72
9
73
5
74
0
42
0.000000001
43
0.0000000001
44
0.0000000001
40
0
40
0
40
0
40
0
40
0.038066167304094414
40
0.074793013771350642
40
0.074793013771350642
40
0.074793013771350642
40
0.074793013771350642
10
164.17576863230204
20
17.035012512498188
30
0
10
164.30393877569767
20
17.027685200646577
30
0
10
164.5557695214485
20
17.013288381238766
30
0
10
164.78127764389478
20
16.900548788735989
30
0
10
164.8920126146171
20
16.845188408189106
30
0
0
SPLINE
5
230
100
AcDbEntity
8
0
100
AcDbSpline
70
0
71
3
72
9
73
5
74
0
42
0.000000001
43
0.0000000001
44
0.0000000001
40
0
40
0
40
0
40
0
40
0.036144382720666807
40
0.072666792747542161
40
0.072666792747542161
40
0.072666792747542161
40
0.072666792747542161
10
164.8920126146171
20
16.845188408189106
30
0
10
164.99216409392579
20
16.775384158704092
30
0
10
165.1935145180438
20
16.635045590207124
30
0
10
165.31650156515013
20
16.422605582936932
30
0
10
165.37831499041056
20
16.315833001427936
30
0
0
SPLINE
5
231
100
AcDbEntity
8
0
100
AcDbSpline
70
0
71
3
72
9
73
5
74
0
42
0.000000001
43
0.0000000001
44
0.0000000001
40
0
40
0
40
0
40
0
40
0.038339899119862839
40
0.079331855435912119
40
0.079331855435912119
40
0.079331855435912119
40
0.079331855435912119
10
165.37831499041056
20
16.315833001427936
30
0
10
165.42710122133758
20
16.196612620051557
30
0
10
165.52804833669299
20
15.949925114933288
30
0
10
165.53964341476444
20
15.683459499551093
30
0
10
165.54563476503824
20
15.545772730403231
30
0
0
SPLINE
5
232
100
AcDbEntity
8
0
100
AcDbSpline
70
0
71
3
72
9
73
5
74
0
42
0.000000001
43
0.0000000001
44
0.0000000001
40
0
40
0
40
0
40
0
40
0.041574397479635761
40
0.080618593655310988
40
0.080618593655310988
40
0.080618593655310988
40
0.080618593655310988
10
165.54563476503824
20
15.545772730403231
30
0
10
165.53926240005217
20
15.406064657691392
30
0
10
165.52690548967996
20
15.135151090036214
30
0
10
165.42086514374807
20
14.885740494924919
30
0
10
165.36950900019144
20
14.764949052624987
30
0
0
SPLINE
5
233
100
AcDbEntity
8
0
100
AcDbSpline
70
0
71
3
72
9
73
5
74
0
42
0.000000001
43
0.0000000001
44
0.0000000001
40
0
40
0
40
0
40
0
40
0.036993842247802056
40
0.073027883644125893
40
0.073027883644125893
40
0.073027883644125893
40
0.073027883644125893
10
165.36950900019144
20
14.764949052624987
30
0
10
165.3054090782629
20
14.657513668540316
30
0
10
165.17887229928118
20
14.445430298674523
30
0
10
164.97237664740715
20
14.310165388096316
30
0
10
164.87048580111002
20
14.243421821885393
30
0
0
SPLINE
5
234
100
AcDbEntity
8
0
100
AcDbSpline
70
0
71
3
72
9
73
5
74
0
42
0.000000001
43
0.0000000001
44
0.0000000001
40
0
40
0
40
0
40
0
40
0.036094612795286099
40
0.072470828559894715
40
0.072470828559894715
40
0.072470828559894715
40
0.072470828559894715
10
164.87048580111002
20
14.243421821885393
30
0
10
164.76049322666992
20
14.191766696619371
30
0
10
164.53964993766391
20
14.088053443103522
30
0
10
164.29607294887515
20
14.073581656775358
30
0
10
164.17381121576761
20
14.066317646794603
30
0
0
SPLINE
5
235
100
AcDbEntity
8
0
100
AcDbSpline
70
0
71
3
72
9
73
5
74
0
42
0.000000001
43
0.0000000001
44
0.0000000001
40
0
40
0
40
0
40
0
40
0.038666936855117996
40
0.075746389981578038
40
0.075746389981578038
40
0.075746389981578038
40
0.075746389981578038
10
164.17381121576761
20
14.066317646794603
30
0
10
164.04353468640377
20
14.073765952523122
30
0
10
163.78833017316256
20
14.088356771354418
30
0
10
163.56101534645751
20
14.204941922048384
30
0
10
163.44973995150065
20
14.262012808614061
30
0
0
SPLINE
5
236
100
AcDbEntity
8
0
100
AcDbSpline
70
0
71
3
72
9
73
5
74
0
42
0.000000001
43
0.0000000001
44
0.0000000001
40
0
40
0
40
0
40
0
40
0.036350715317456345
40
0.072810773533254936
40
0.072810773533254936
40
0.072810773533254936
40
0.072810773533254936
10
163.44973995150065
20
14.262012808614061
30
0
10
163.34981270185594
20
14.3332815057178
30
0
10
163.14965762154625
20
14.4760332760616
30
0
10
163.02752868145731
20
14.689411322270891
30
0
10
162.96637250841593
20
14.796260564618395
30
0
0
SPLINE
5
237
100
AcDbEntity
8
0
100
AcDbSpline
70
0
71
3
72
9
73
5
74
0
42
0.000000001
43
0.0000000001
44
0.0000000001
40
0
40
0
40
0
40
0
40
0.036951138299932615
40
0.07397062381776473
40
0.07397062381776473
40
0.07397062381776473
40
0.07397062381776473
10
162.96637250841593
20
14.796260564618395
30
0
10
162.91842743782075
20
14.910800270905522
30
0
10
162.82244861432358
20
15.140091543536702
30
0
10
162.80881297684343
20
15.388290435708353
30
0
10
162.80198885858988
20
15.512504546933458
30
0
0
SPLINE
5
238
100
AcDbEntity
8
0
100
AcDbSpline
70
0
71
3
72
9
73
5
74
0
42
0.000000001
43
0.0000000001
44
0.0000000001
40
0
40
0
40
0
40
0
40
0.046876607056584078
40
0.087948159112133606
40
0.087948159112133606
40
0.087948159112133606
40
0.087948159112133606
10
163.1933791822288
20
15.506633638434694
30
0
10
163.20160543857881
20
15.346775411255873
30
0
10
163.21703923696563
20
15.046855308626945
30
0
10
163.39100346019808
20
14.803331605244875
30
0
10
163.47224428118204
20
14.689606695466326
30
0
0
SPLINE
5
239
100
AcDbEntity
8
0
100
AcDbSpline
70
0
71
3
72
9
73
5
74
0
42
0.000000001
43
0.0000000001
44
0.0000000001
40
0
40
0
40
0
40
0
40
0.038588231887535157
40
0.077831477148475631
40
0.077831477148475631
40
0.077831477148475631
40
0.077831477148475631
10
163.47224428118204
20
14.689606695466326
30
0
10
163.57169242979521
20
14.602564947767574
30
0
10
163.77227680300001
20
14.427003968018015
30
0
10
164.03791707097326
20
14.40318255035216
30
0
10
164.17185499132609
20
14.391171603493975
30
0
0
SPLINE
5
240
100
AcDbEntity
8
0
100
AcDbSpline
70
0
71
3
72
9
73
5
74
0
42
0.000000001
43
0.0000000001
44
0.0000000001
40
0
40
0
40
0
40
0
40
0.039785496949870693
40
0.078541549135640737
40
0.078541549135640737
40
0.078541549135640737
40
0.078541549135640737
10
164.17185499132609
20
14.391171603493975
30
0
10
164.30776976500863
20
14.403057128339567
30
0
10
164.57608253458142
20
14.42652064155995
30
0
10
164.77779919010197
20
14.604646396589644
30
0
10
164.87733556688761
20
14.69254192619829
30
0
0
SPLINE
5
241
100
AcDbEntity
8
0
100
AcDbSpline
70
0
71
3
72
9
73
5
74
0
42
0.000000001
43
0.0000000001
44
0.0000000001
40
0
40
0
40
0
40
0
40
0.041949861995315009
40
0.09150631150817104
40
0.09150631150817104
40
0.09150631150817104
40
0.09150631150817104
10
164.87733556688761
20
14.69254192619829
30
0
10
164.95795343958562
20
14.810146763794222
30
0
10
165.13380727607867
20
15.066681216878312
30
0
10
165.14706470562732
20
15.378733611284602
30
0
10
165.15424444139933
20
15.547729699902819
30
0
0
SPLINE
5
242
100
AcDbEntity
8
0
100
AcDbSpline
70
0
71
3
72
9
73
5
74
0
42
0.000000001
43
0.0000000001
44
0.0000000001
40
0
40
0
40
0
40
0
40
0.032936659897467649
40
0.062646030188610369
40
0.062646030188610369
40
0.062646030188610369
40
0.062646030188610369
10
165.15424444139933
20
15.547729699902819
30
0
10
165.15041033023357
20
15.658276801683751
30
0
10
165.14311779223536
20
15.86853907773088
30
0
10
165.07035521815371
20
16.065750851751712
30
0
10
165.03584815920328
20
16.159276931577015
30
0
0
SPLINE
5
243
100
AcDbEntity
8
0
100
AcDbSpline
70
0
71
3
72
9
73
5
74
0
42
0.000000001
43
0.0000000001
44
0.0000000001
40
0
40
0
40
0
40
0
40
0.02739208027590375
40
0.053892962831132644
40
0.053892962831132644
40
0.053892962831132644
40
0.053892962831132644
10
165.03584815920328
20
16.159276931577015
30
0
10
164.99246354762369
20
16.241056419230958
30
0
10
164.9071058370829
20
16.401954709689029
30
0
10
164.7612103343838
20
16.510828862638249
30
0
10
164.68946887911295
20
16.564365743689823
30
0
0
SPLINE
5
244
100
AcDbEntity
8
0
100
AcDbSpline
70
0
71
3
72
9
73
5
74
0
42
0.000000001
43
0.0000000001
44
0.0000000001
40
0
40
0
40
0
40
0
40
0.026489095943759623
40
0.053709132785669134
40
0.053709132785669134
40
0.053709132785669134
40
0.053709132785669134
10
164.68946887911295
20
16.564365743689823
30
0
10
164.61052238102008
20
16.606315699251724
30
0
10
164.45045093282732
20
16.691373178691972
30
0
10
164.26945462331489
20
16.702541552050963
30
0
10
164.17772485674357
20
16.708201735310841
30
0
0
SPLINE
5
245
100
AcDbEntity
8
0
100
AcDbSpline
70
0
71
3
72
9
73
5
74
0
42
0.000000001
43
0.0000000001
44
0.0000000001
40
0
40
0
40
0
40
0
40
0.038133656564417799
40
0.076176478698345207
40
0.076176478698345207
40
0.076176478698345207
40
0.076176478698345207
10
164.17772485674357
20
16.708201735310841
30
0
10
164.04809418151677
20
16.696719008438659
30
0
10
163.7891416115375
20
16.673780906567941
30
0
10
163.58562390838881
20
16.512058127526618
30
0
10
163.48398639620279
20
16.431293158822346
30
0
0
SPLINE
5
246
100
AcDbEntity
8
0
100
AcDbSpline
70
0
71
3
72
9
73
5
74
0
42
0.000000001
43
0.0000000001
44
0.0000000001
40
0
40
0
40
0
40
0
40
0.042909524946415048
40
0.098887034859630879
40
0.098887034859630879
40
0.098887034859630879
40
0.098887034859630879
10
163.48398639620279
20
16.431293158822346
30
0
10
163.39959965543954
20
16.312125660832468
30
0
10
163.20512641002455
20
16.037498511206
30
0
10
163.19762534820146
20
15.698520643441046
30
0
10
163.1933791822288
20
15.506633638434694
30
0
0
LINE
5
247
100
AcDbEntity
8
0
100
AcDbLine
10
166.04074313105082
20
14.115241437249468
30
0
11
166.04074313105082
21
16.984131901555347
31
0
0
LINE
5
248
100
AcDbEntity
8
0
100
AcDbLine
10
166.04074313105082
20
16.984131901555347
30
0
11
167.31276108683085
21
16.984131901555347
31
0
0
SPLINE
5
249
100
AcDbEntity
8
0
100
AcDbSpline
70
0
71
3
72
9
73
5
74
0
42
0.000000001
43
0.0000000001
44
0.0000000001
40
0
40
0
40
0
40
0
40
0.033812717180322964
40
0.059047444327800527
40
0.059047444327800527
40
0.059047444327800527
40
0.059047444327800527
10
167.31276108683085
20
16.984131901555347
30
0
10
167.42609635713416
20
16.983259825739474
30
0
10
167.6240147328719
20
16.981736912099826
30
0
10
167.81451854172184
20
16.929259193506031
30
0
10
167.89593293131327
20
16.906832127862263
30
0
0
SPLINE
5
250
100
AcDbEntity
8
0
100
AcDbSpline
70
0
71
3
72
9
73
5
74
0
42
0.000000001
43
0.0000000001
44
0.0000000001
40
0
40
0
40
0
40
0
40
0.02089623754341224
40
0.042582538082299309
40
0.042582538082299309
40
0.042582538082299309
40
0.042582538082299309
10
167.89593293131327
20
16.906832127862263
30
0
10
167.95947920868673
20
16.875546049761294
30
0
10
168.08897437596858
20
16.811791002499199
30
0
10
168.17241907807133
20
16.693884527610802
30
0
10
168.21491553247904
20
16.633837490372944
30
0
0
SPLINE
5
251
100
AcDbEntity
8
0
100
AcDbSpline
70
0
71
3
72
9
73
5
74
0
42
0.000000001
43
0.0000000001
44
0.0000000001
40
0
40
0
40
0
40
0
40
0.022458638871113823
40
0.04530609565737917
40
0.04530609565737917
40
0.04530609565737917
40
0.04530609565737917
10
168.21491553247904
20
16.633837490372944
30
0
10
168.24973236342385
20
16.56656028774005
30
0
10
168.31996879593095
20
16.430841137726599
30
0
10
168.32948937865467
20
16.278284396544134
30
0
10
168.3342905229423
20
16.201351403289127
30
0
0
SPLINE
5
252
100
AcDbEntity
8
0
100
AcDbSpline
70
0
71
3
72
9
73
5
74
0
42
0.000000001
43
0.0000000001
44
0.0000000001
40
0
40
0
40
0
40
0
40
0.028561857863785643
40
0.056208694888176917
40
0.056208694888176917
40
0.056208694888176917
40
0.056208694888176917
10
168.3342905229423
20
16.201351403289127
30
0
10
168.32660442373458
20
16.104174469592245
30
0
10
168.31147846073506
20
15.91293380722405
30
0
10
168.19428217085374
20
15.761270422293553
30
0
10
168.13663794458841
20
15.68667319326906
30
0
0
SPLINE
5
253
100
AcDbEntity
8
0
100
AcDbSpline
70
0
71
3
72
9
73
5
74
0
42
0.000000001
43
0.0000000001
44
0.0000000001
40
0
40
0
40
0
40
0
40
0.030423214468477795
40
0.067566340601113578
40
0.067566340601113578
40
0.067566340601113578
40
0.067566340601113578
10
168.13663794458841
20
15.68667319326906
30
0
10
168.05601683363818
20
15.622579254925251
30
0
10
167.87696693581267
20
15.48023424161012
30
0
10
167.65054174495629
20
15.441707250111296
30
0
10
167.52606942118143
20
15.420527874522493
30
0
0
SPLINE
5
254
100
AcDbEntity
8
0
100
AcDbSpline
70
0
71
3
72
9
73
5
74
0
42
0.000000001
43
0.0000000001
44
0.0000000001
40
0
40
0
40
0
40
0
40
0.015083282132720477
40
0.027050498107015757
40
0.027050498107015757
40
0.027050498107015757
40
0.027050498107015757
10
167.52606942118143
20
15.420527874522493
30
0
10
167.5712961998546
20
15.398180915369789
30
0
10
167.65240632430363
20
15.358103671508754
30
0
10
167.7235556561499
20
15.302340309416742
30
0
10
167.75503231943583
20
15.277670442157076
30
0
0
SPLINE
5
255
100
AcDbEntity
8
0
100
AcDbSpline
70
0
71
3
72
9
73
5
74
0
42
0.000000001
43
0.0000000001
44
0.0000000001
40
0
40
0
40
0
40
0
40
0.023603475240836204
40
0.049584249804177701
40
0.049584249804177701
40
0.049584249804177701
40
0.049584249804177701
10
167.75503231943583
20
15.277670442157076
30
0
10
167.8108218004293
20
15.221933457531268
30
0
10
167.92801977800679
20
15.104845760028304
30
0
10
168.02125080291265
20
14.967848000399904
30
0
10
168.07010127962565
20
14.8960649660161
30
0
0
LINE
5
256
100
AcDbEntity
8
0
100
AcDbLine
10
168.07010127962565
20
14.8960649660161
30
0
11
168.56912447870707
21
14.115241437249468
31
0
0
LINE
5
257
100
AcDbEntity
8
0
100
AcDbLine
10
168.56912447870707
20
14.115241437249468
30
0
11
168.09162809313273
21
14.115241437249468
31
0
0
LINE
5
258
100
AcDbEntity
8
0
100
AcDbLine
10
168.09162809313273
20
14.115241437249468
30
0
11
167.71197988451456
21
14.71211162119417
31
0
0
SPLINE
5
259
100
AcDbEntity
8
0
100
AcDbSpline
70
0
71
3
72
9
73
5
74
0
42
0.000000001
43
0.0000000001
44
0.0000000001
40
0
40
0
40
0
40
0
40
0.027382234316491005
40
0.048107995204439605
40
0.048107995204439605
40
0.048107995204439605
40
0.048107995204439605
10
167.71197988451456
20
14.71211162119417
30
0
10
167.66236768556072
20
14.788763752953322
30
0
10
167.57520374554889
20
14.923434296797822
30
0
10
167.47931603556981
20
15.052019041724112
30
0
10
167.43800594271158
20
15.107415585809038
30
0
0
SPLINE
5
260
100
AcDbEntity
8
0
100
AcDbSpline
70
0
71
3
72
9
73
5
74
0
42
0.000000001
43
0.0000000001
44
0.0000000001
40
0
40
0
40
0
40
0
40
0.015480053053891173
40
0.027275218871108821
40
0.027275218871108821
40
0.027275218871108821
40
0.027275218871108821
10
167.43800594271158
20
15.107415585809038
30
0
10
167.40562124594405
20
15.147889317670472
30
0
10
167.34856073786094
20
15.219202373976424
30
0
10
167.27643686687139
20
15.275046864145477
30
0
10
167.24524690569376
20
15.29919680862932
30
0
0
SPLINE
5
261
100
AcDbEntity
8
0
100
AcDbSpline
70
0
71
3
72
9
73
5
74
0
42
0.000000001
43
0.0000000001
44
0.0000000001
40
0
40
0
40
0
40
0
40
0.0097634067896391428
40
0.018992172574755439
40
0.018992172574755439
40
0.018992172574755439
40
0.018992172574755439
10
167.24524690569376
20
15.29919680862932
30
0
10
167.21718554041757
20
15.315966481965431
30
0
10
167.16259944117056
20
15.348587526738413
30
0
10
167.10166541972478
20
15.366711255555309
30
0
10
167.0720560735557
20
15.375518023066805
30
0
0
SPLINE
5
262
100
AcDbEntity
8
0
100
AcDbSpline
70
0
71
3
72
9
73
5
74
0
42
0.000000001
43
0.0000000001
44
0.0000000001
40
0
40
0
40
0
40
0
40
0.0085745084045128171
40
0.021201390842127386
40
0.021201390842127386
40
0.021201390842127386
40
0.021201390842127386
10
167.0720560735557
20
15.375518023066805
30
0
10
167.04371980101178
20
15.379478413106005
30
0
10
166.97365533073904
20
15.389270901858382
30
0
10
166.90286615648762
20
15.389236906888543
30
0
10
166.86070634783243
20
15.389216660552309
30
0
0
LINE
5
263
100
AcDbEntity
8
0
100
AcDbLine
10
166.86070634783243
20
15.389216660552309
30
0
11
166.42039133966898
21
15.389216660552309
31
0
0
LINE
5
264
100
AcDbEntity
8
0
100
AcDbLine
10
166.42039133966898
20
15.389216660552309
30
0
11
166.42039133966898
21
14.115241437249468
31
0
0
LINE
5
265
100
AcDbEntity
8
0
100
AcDbLine
10
166.42039133966898
20
14.115241437249468
30
0
11
166.04074313105082
21
14.115241437249468
31
0
0
LINE
5
266
100
AcDbEntity
8
0
100
AcDbLine
10
166.42039133966898
20
15.717984407239245
30
0
11
167.23644091547465
21
15.717984407239245
31
0
0
SPLINE
5
267
100
AcDbEntity
8
0
100
AcDbSpline
70
0
71
3
72
9
73
5
74
0
42
0.000000001
43
0.0000000001
44
0.0000000001
40
0
40
0
40
0
40
0
40
0.023228897077840188
40
0.041202538713014755
40
0.041202538713014755
40
0.041202538713014755
40
0.041202538713014755
10
167.23644091547465
20
15.717984407239245
30
0
10
167.31426140569468
20
15.718831821190818
30
0
10
167.45229644671332
20
15.720334931994085
30
0
10
167.58541566475483
20
15.756168843199722
30
0
10
167.64348580301737
20
15.771800546937273
30
0
0
SPLINE
5
268
100
AcDbEntity
8
0
100
AcDbSpline
70
0
71
3
72
9
73
5
74
0
42
0.000000001
43
0.0000000001
44
0.0000000001
40
0
40
0
40
0
40
0
40
0.014689029929519214
40
0.028573810927544595
40
0.028573810927544595
40
0.028573810927544595
40
0.028573810927544595
10
167.64348580301737
20
15.771800546937273
30
0
10
167.68909101522425
20
15.791846851606909
30
0
10
167.77780447807123
20
15.830841892271582
30
0
10
167.83754790335848
20
15.907003436169118
30
0
10
167.86657883585428
20
15.944012372784899
30
0
0
SPLINE
5
269
100
AcDbEntity
8
0
100
AcDbSpline
70
0
71
3
72
9
73
5
74
0
42
0.000000001
43
0.0000000001
44
0.0000000001
40
0
40
0
40
0
40
0
40
0.013614989820263589
40
0.027130995667539858
40
0.027130995667539858
40
0.027130995667539858
40
0.027130995667539858
10
167.86657883585428
20
15.944012372784899
30
0
10
167.88883899918449
20
15.984248653223879
30
0
10
167.93319748955753
20
16.064428687486057
30
0
10
167.93967383876577
20
16.15582164319736
30
0
10
167.94290019930338
20
16.201351403289127
30
0
0
SPLINE
5
270
100
AcDbEntity
8
0
100
AcDbSpline
70
0
71
3
72
9
73
5
74
0
42
0.000000001
43
0.0000000001
44
0.0000000001
40
0
40
0
40
0
40
0
40
0.018906458592569939
40
0.037492802197764907
40
0.037492802197764907
40
0.037492802197764907
40
0.037492802197764907
10
167.94290019930338
20
16.201351403289127
30
0
10
167.93695659943688
20
16.26598516760027
30
0
10
167.92517003385422
20
16.394158348672217
30
0
10
167.83824249549485
20
16.488982693174258
30
0
10
167.79514982164835
20
16.535990058474827
30
0
0
SPLINE
5
271
100
AcDbEntity
8
0
100
AcDbSpline
70
0
71
3
72
9
73
5
74
0
42
0.000000001
43
0.0000000001
44
0.0000000001
40
0
40
0
40
0
40
0
40
0.021443460636177879
40
0.049254878157586258
40
0.049254878157586258
40
0.049254878157586258
40
0.049254878157586258
10
167.79514982164835
20
16.535990058474827
30
0
10
167.73325482408887
20
16.57407045072236
30
0
10
167.59108418218176
20
16.661539778186278
30
0
10
167.42320732133251
20
16.66509716795737
30
0
10
167.32841684282755
20
16.667105822854328
30
0
0
LINE
5
272
100
AcDbEntity
8
0
100
AcDbLine
10
167.32841684282755
20
16.667105822854328
30
0
11
166.42039133966898
21
16.667105822854328
31
0
0
LINE
5
273
100
AcDbEntity
8
0
100
AcDbLine
10
166.42039133966898
20
16.667105822854328
30
0
11
166.42039133966898
21
15.717984407239245
31
0
0
ENDSEC
0
SECTION
2
OBJECTS
0
DICTIONARY
5
C
100
AcDbDictionary
3
ACAD_GROUP
350
D
3
ACAD_MLINESTYLE
350
17
0
DICTIONARY
5
D
100
AcDbDictionary
0
DICTIONARY
5
1A
330
C
100
AcDbDictionary
0
DICTIONARY
5
17
100
AcDbDictionary
0
ENDSEC
0
EOF
