0
SECTION
2
HEADER
9
$INSUNITS
70
4
9
$ACADVER
1
AC1014
9
$HANDSEED
5
FFFF
0
ENDSEC
0
SECTION
2
TABLES
0
TABLE
2
VPORT
5
8
100
AcDbSymbolTable
0
ENDTAB
0
TABLE
2
LTYPE
5
5
100
AcDbSymbolTable
0
LTYPE
5
14
100
AcDbSymbolTableRecord
100
AcDbLinetypeTableRecord
2
BYBLOCK
70
0
0
LTYPE
5
15
100
AcDbSymbolTableRecord
100
AcDbLinetypeTableRecord
2
BYLAYER
70
0
0
ENDTAB
0
TABLE
2
LAYER
5
2
100
AcDbSymbolTable
70
2
0
LAYER
5
50
100
AcDbSymbolTableRecord
100
AcDbLayerTableRecord
2
0
70
0
6
CONTINUOUS
0
ENDTAB
0
TABLE
2
STYLE
5
3
100
AcDbSymbolTable
70
1
0
STYLE
5
11
100
AcDbSymbolTableRecord
100
AcDbTextStyleTableRecord
2
STANDARD
70
0
0
ENDTAB
0
TABLE
2
VIEW
5
6
100
AcDbSymbolTable
70
0
0
ENDTAB
0
TABLE
2
UCS
5
7
100
AcDbSymbolTable
70
0
0
ENDTAB
0
TABLE
2
APPID
5
9
100
AcDbSymbolTable
70
2
0
APPID
5
12
100
AcDbSymbolTableRecord
100
AcDbRegAppTableRecord
2
ACAD
70
0
0
ENDTAB
0
TABLE
2
DIMSTYLE
5
A
100
AcDbSymbolTable
70
1
0
ENDTAB
0
TABLE
2
BLOCK_RECORD
5
1
100
AcDbSymbolTable
70
1
0
BLOCK_RECORD
5
1F
100
AcDbSymbolTableRecord
100
AcDbBlockTableRecord
2
*MODEL_SPACE
0
BLOCK_RECORD
5
1B
100
AcDbSymbolTableRecord
100
AcDbBlockTableRecord
2
*PAPER_SPACE
0
ENDTAB
0
ENDSEC
0
SECTION
2
BLOCKS
0
BLOCK
5
20
100
AcDbEntity
100
AcDbBlockBegin
2
*MODEL_SPACE
0
ENDBLK
5
21
100
AcDbEntity
100
AcDbBlockEnd
0
BLOCK
5
1C
100
AcDbEntity
100
AcDbBlockBegin
2
*PAPER_SPACE
0
ENDBLK
5
1D
100
AcDbEntity
100
AcDbBlockEnd
0
ENDSEC
0
SECTION
2
ENTITIES
0
LWPOLYLINE
5
100
100
AcDbEntity
8
0
100
AcDbPolyline
90
132
70
1
43
0.0
10
219.00000000000003
20
70
10
219.00000000000003
20
65
10
216
20
65
10
216
20
59
10
219.00000000000003
20
59
10
219.00000000000003
20
53.000000000000007
10
216
20
53.000000000000007
10
216
20
47
10
219.00000000000003
20
47
10
219.00000000000003
20
41.000000000000007
10
216
20
41.000000000000007
10
216
20
35
10
219.00000000000003
20
35
10
219.00000000000003
20
29.000000000000004
10
216
20
29.000000000000004
10
216
20
23.000000000000004
10
219.00000000000003
20
23.000000000000004
10
219.00000000000003
20
17
10
216
20
17
10
216
20
11
10
219.00000000000003
20
11
10
219.00000000000003
20
6.0000000000000009
10
223
20
6.0000000000000009
10
223
20
3.0000000000000004
10
229.00000000000003
20
3.0000000000000004
10
229.00000000000003
20
6.0000000000000009
10
235
20
6.0000000000000009
10
235
20
3.0000000000000004
10
241
20
3.0000000000000004
10
241
20
6.0000000000000009
10
247.00000000000003
20
6.0000000000000009
10
247.00000000000003
20
3.0000000000000004
10
253
20
3.0000000000000004
10
253
20
6.0000000000000009
10
259
20
6.0000000000000009
10
259
20
3.0000000000000004
10
265
20
3.0000000000000004
10
265
20
6.0000000000000009
10
271
20
6.0000000000000009
10
271
20
3.0000000000000004
10
277
20
3.0000000000000004
10
277
20
6.0000000000000009
10
283
20
6.0000000000000009
10
283
20
3.0000000000000004
10
289
20
3.0000000000000004
10
289
20
6.0000000000000009
10
295
20
6.0000000000000009
10
295
20
3.0000000000000004
10
301
20
3.0000000000000004
10
301
20
6.0000000000000009
10
307
20
6.0000000000000009
10
307
20
3.0000000000000004
10
313
20
3.0000000000000004
10
313
20
6.0000000000000009
10
319
20
6.0000000000000009
10
319
20
3.0000000000000004
10
325
20
3.0000000000000004
10
325
20
6.0000000000000009
10
331
20
6.0000000000000009
10
331
20
3.0000000000000004
10
337
20
3.0000000000000004
10
337
20
6.0000000000000009
10
343.00000000000006
20
6.0000000000000009
10
343.00000000000006
20
3.0000000000000004
10
349
20
3.0000000000000004
10
349
20
6.0000000000000009
10
353.00000000000006
20
6.0000000000000009
10
353.00000000000006
20
11
10
356
20
11
10
356
20
17
10
353.00000000000006
20
17
10
353.00000000000006
20
23.000000000000004
10
356
20
23.000000000000004
10
356
20
29.000000000000004
10
353.00000000000006
20
29.000000000000004
10
353.00000000000006
20
35
10
356
20
35
10
356
20
41.000000000000007
10
353.00000000000006
20
41.000000000000007
10
353.00000000000006
20
47
10
356
20
47
10
356
20
53.000000000000007
10
353.00000000000006
20
53.000000000000007
10
353.00000000000006
20
59
10
356
20
59
10
356
20
65
10
353.00000000000006
20
65
10
353.00000000000006
20
70
10
349
20
70
10
349
20
73
10
343.00000000000006
20
73
10
343.00000000000006
20
70
10
337
20
70
10
337
20
73
10
331
20
73
10
331
20
70
10
325
20
70
10
325
20
73
10
319
20
73
10
319
20
70
10
313
20
70
10
313
20
73
10
307
20
73
10
307
20
70
10
301
20
70
10
301
20
73
10
295
20
73
10
295
20
70
10
289
20
70
10
289
20
73
10
283
20
73
10
283
20
70
10
277
20
70
10
277
20
73
10
271
20
73
10
271
20
70
10
265
20
70
10
265
20
73
10
259
20
73
10
259
20
70
10
253
20
70
10
253
20
73
10
247.00000000000003
20
73
10
247.00000000000003
20
70
10
241
20
70
10
241
20
73
10
235
20
73
10
235
20
70
10
229.00000000000003
20
70
10
229.00000000000003
20
73
10
223
20
73
10
223
20
70
0
CIRCLE
5
101
100
AcDbEntity
8
0
100
AcDbCircle
10
286.0000042617321
20
58.000000953674309
30
0
40
4.0000000000000124
210
0
220
0
230
1
0
CIRCLE
5
102
100
AcDbEntity
8
0
100
AcDbCircle
10
286.0000042617321
20
58.000000953674309
30
0
40
3.0000000000000213
210
0
220
0
230
1
0
SPLINE
5
103
100
AcDbEntity
8
0
100
AcDbSpline
70
4
71
3
72
8
73
4
74
0
42
0.000000001
43
0.0000000001
44
0.0000000001
40
0
40
0
40
0
40
0
40
1
40
1
40
1
40
1
41
1
41
1
41
1
41
1
10
291.67582895359755
20
59.617881544696999
30
0
10
291.6334393676907
20
59.617881544696999
30
0
10
291.59802229746941
20
59.58579492864498
30
0
10
291.59354779758127
20
59.544581619833998
30
0
0
SPLINE
5
104
100
AcDbEntity
8
0
100
AcDbSpline
70
4
71
3
72
8
73
4
74
0
42
0.000000001
43
0.0000000001
44
0.0000000001
40
0
40
0
40
0
40
0
40
1
40
1
40
1
40
1
41
1
41
1
41
1
41
1
10
291.59354779758127
20
59.544581619833998
30
0
10
291.51683583112435
20
58.718464213457302
30
0
10
291.4197428158871
20
57.892640729211351
30
0
10
291.34669709849294
20
57.066964107935263
30
0
0
SPLINE
5
105
100
AcDbEntity
8
0
100
AcDbSpline
70
4
71
3
72
8
73
4
74
0
42
0.000000001
43
0.0000000001
44
0.0000000001
40
0
40
0
40
0
40
0
40
1
40
1
40
1
40
1
41
1
41
1
41
1
41
1
10
291.34669709849294
20
57.066964107935263
30
0
10
291.34669709849294
20
57.02150340432101
30
0
10
291.38354765219839
20
56.984682951918948
30
0
10
291.42897819845467
20
56.984682951918948
30
0
0
SPLINE
5
106
100
AcDbEntity
8
0
100
AcDbSpline
70
4
71
3
72
8
73
4
74
0
42
0.000000001
43
0.0000000001
44
0.0000000001
40
0
40
0
40
0
40
0
40
1
40
1
40
1
40
1
41
1
41
1
41
1
41
1
10
291.42897819845467
20
56.984682951918948
30
0
10
291.42983919662919
20
56.984682951918948
30
0
10
291.43070025085831
20
56.984654251979805
30
0
10
291.43156119297822
20
56.984682951918948
30
0
0
LINE
5
107
100
AcDbEntity
8
0
100
AcDbLine
10
291.43156119297828
20
56.984682951918948
30
0
11
293.07475883211879
21
56.984654251979798
31
0
0
LINE
5
108
100
AcDbEntity
8
0
100
AcDbLine
10
293.07475883211879
20
56.984654251979798
30
0
11
293.07475883211879
21
56.244058151878562
31
0
0
LINE
5
109
100
AcDbEntity
8
0
100
AcDbLine
10
293.07475883211879
20
56.244058151878562
30
0
11
292.7455976604748
21
56.244058151878562
31
0
0
SPLINE
5
110
100
AcDbEntity
8
0
100
AcDbSpline
70
4
71
3
72
8
73
4
74
0
42
0.000000001
43
0.0000000001
44
0.0000000001
40
0
40
0
40
0
40
0
40
1
40
1
40
1
40
1
41
1
41
1
41
1
41
1
10
292.7455976604748
20
56.244058151878562
30
0
10
292.70013695686055
20
56.244058151878562
30
0
10
292.66331650445852
20
56.207207654227709
30
0
10
292.66331650445852
20
56.161776995862255
30
0
0
SPLINE
5
111
100
AcDbEntity
8
0
100
AcDbSpline
70
4
71
3
72
8
73
4
74
0
42
0.000000001
43
0.0000000001
44
0.0000000001
40
0
40
0
40
0
40
0
40
1
40
1
40
1
40
1
41
1
41
1
41
1
41
1
10
292.66331650445852
20
56.161776995862255
30
0
10
292.66331650445852
20
56.116316068029732
30
0
10
292.70016700210937
20
56.079495839845947
30
0
10
292.7455976604748
20
56.079495839845947
30
0
0
LINE
5
112
100
AcDbEntity
8
0
100
AcDbLine
10
292.7455976604748
20
56.079495839845933
30
0
11
293.56848231579539
21
56.079495839845947
31
0
0
SPLINE
5
113
100
AcDbEntity
8
0
100
AcDbSpline
70
4
71
3
72
8
73
4
74
0
42
0.000000001
43
0.0000000001
44
0.0000000001
40
0
40
0
40
0
40
0
40
1
40
1
40
1
40
1
41
1
41
1
41
1
41
1
10
293.56848231579539
20
56.079495839845947
30
0
10
293.61394301940965
20
56.079495839845947
30
0
10
293.65076347181173
20
56.116346561715076
30
0
10
293.65076347181173
20
56.161776995862255
30
0
0
SPLINE
5
114
100
AcDbEntity
8
0
100
AcDbSpline
70
4
71
3
72
8
73
4
74
0
42
0.000000001
43
0.0000000001
44
0.0000000001
40
0
40
0
40
0
40
0
40
1
40
1
40
1
40
1
41
1
41
1
41
1
41
1
10
293.65076347181173
20
56.161776995862255
30
0
10
293.65076347181173
20
56.207237699476508
30
0
10
293.61391297416083
20
56.244058151878562
30
0
10
293.56848231579539
20
56.244058151878562
30
0
0
LINE
5
115
100
AcDbEntity
8
0
100
AcDbLine
10
293.56848231579539
20
56.244058151878562
30
0
11
293.2393211441514
21
56.244058151878562
31
0
0
LINE
5
116
100
AcDbEntity
8
0
100
AcDbLine
10
293.2393211441514
20
56.244058151878562
30
0
11
293.2393211441514
21
56.984654251979805
31
0
0
LINE
5
117
100
AcDbEntity
8
0
100
AcDbLine
10
293.2393211441514
20
56.984654251979805
30
0
11
294.88509045479259
21
56.984654251979805
31
0
0
SPLINE
5
118
100
AcDbEntity
8
0
100
AcDbSpline
70
4
71
3
72
8
73
4
74
0
42
0.000000001
43
0.0000000001
44
0.0000000001
40
0
40
0
40
0
40
0
40
1
40
1
40
1
40
1
41
1
41
1
41
1
41
1
10
294.88509045479259
20
56.984654251979805
30
0
10
294.93055115840684
20
56.984654251979805
30
0
10
294.96737138659068
20
57.021504749630658
30
0
10
294.96737138659068
20
57.066935407996112
30
0
0
SPLINE
5
119
100
AcDbEntity
8
0
100
AcDbSpline
70
4
71
3
72
8
73
4
74
0
42
0.000000001
43
0.0000000001
44
0.0000000001
40
0
40
0
40
0
40
0
40
1
40
1
40
1
40
1
41
1
41
1
41
1
41
1
10
294.96737138659068
20
57.066935407996112
30
0
10
294.88672141852214
20
57.892024353174435
30
0
10
294.80309562551304
20
58.718949870240124
30
0
10
294.72052051933866
20
59.544626491516212
30
0
0
LINE
5
120
100
AcDbEntity
8
0
100
AcDbLine
10
294.72052051933866
20
59.544626491516212
30
0
11
294.71922902207689
21
59.544626491516212
31
0
0
SPLINE
5
121
100
AcDbEntity
8
0
100
AcDbSpline
70
4
71
3
72
8
73
4
74
0
42
0.000000001
43
0.0000000001
44
0.0000000001
40
0
40
0
40
0
40
0
40
1
40
1
40
1
40
1
41
1
41
1
41
1
41
1
10
294.71922902207689
20
59.544626491516212
30
0
10
294.7146944316911
20
59.585811128415322
30
0
10
294.68059890398047
20
59.617926416379198
30
0
10
294.63824093285029
20
59.617926416379198
30
0
0
LINE
5
122
100
AcDbEntity
8
0
100
AcDbLine
10
294.63824093285029
20
59.617926416379198
30
0
11
291.67582895359755
21
59.617881544696999
31
0
0
LWPOLYLINE
5
123
100
AcDbEntity
8
0
100
AcDbPolyline
90
4
70
1
43
0.0
10
291.75038814434532
20
59.453319316746231
10
292.57459535115873
20
59.453319316746231
10
292.53088556805091
20
58.794996861349098
10
291.68485732664311
20
58.794996861349098
0
LWPOLYLINE
5
124
100
AcDbEntity
8
0
100
AcDbPolyline
90
4
70
1
43
0.0
10
292.74042113316881
20
59.453319316746231
10
293.53244752422756
20
59.453319316746231
10
293.57615730733539
20
58.794996861349098
10
292.69669946649242
20
58.794996861349098
0
LWPOLYLINE
5
125
100
AcDbEntity
8
0
100
AcDbPolyline
90
4
70
1
43
0.0
10
293.69834707404999
20
59.453319316746231
10
294.5636251269882
20
59.453319316746231
10
294.62920448794688
20
58.794996861349098
10
293.74203196892933
20
58.794996861349098
0
LWPOLYLINE
5
126
100
AcDbEntity
8
0
100
AcDbPolyline
90
4
70
1
43
0.0
10
291.66817302061088
20
58.630434661425625
10
292.5205932765914
20
58.630434661425625
10
292.47688349348357
20
57.972112206028484
10
291.60256854720546
20
57.972112206028484
0
LWPOLYLINE
5
127
100
AcDbEntity
8
0
100
AcDbPolyline
90
4
70
1
43
0.0
10
292.68524370640597
20
58.630405961486467
10
293.58659623754653
20
58.630405961486467
10
293.63030602065436
20
57.972112878683305
10
292.64159535910539
20
57.972112878683305
0
LWPOLYLINE
5
128
100
AcDbEntity
8
0
100
AcDbPolyline
90
4
70
1
43
0.0
10
293.75374468315852
20
58.630405961486467
10
294.64606032095912
20
58.630405961486467
10
294.7116396819178
20
57.972112878683305
10
293.79742957803785
20
57.972112878683305
0
LWPOLYLINE
5
129
100
AcDbEntity
8
0
100
AcDbPolyline
90
4
70
1
43
0.0
10
291.58595800898559
20
57.807521418274995
10
292.46541596193771
20
57.807521418274995
10
292.42170606672073
20
57.149199074987003
10
291.52035347952562
20
57.149199074987003
0
LWPOLYLINE
5
130
100
AcDbEntity
8
0
100
AcDbPolyline
90
4
70
1
43
0.0
10
292.63124208027517
20
57.807521418274995
10
293.64184720790348
20
57.807521418274995
10
293.68555699101131
20
57.149199074987003
10
292.58752041359878
20
57.149199074987003
0
LWPOLYLINE
5
131
100
AcDbEntity
8
0
100
AcDbPolyline
90
4
70
1
43
0.0
10
293.8076732141318
20
57.807521418274995
10
294.72827533258442
20
57.807521418274995
10
294.79385469354315
20
57.149199074987003
10
293.85143120416865
20
57.149199074987003
0
LWPOLYLINE
5
132
100
AcDbEntity
8
0
100
AcDbPolyline
90
4
70
1
43
0.0
10
260.02920963856911
20
36.027032113511964
10
312.02920847627843
20
36.027032113511964
10
312.02920847627843
20
25.027029379148896
10
260.02920963856911
20
25.027029379148896
0
LINE
5
133
100
AcDbEntity
8
0
100
AcDbLine
10
260.02920963856911
20
25.027029379148896
30
0
11
312.02920847627843
21
36.027032113511964
31
0
0
LINE
5
134
100
AcDbEntity
8
0
100
AcDbLine
10
312.02920847627843
20
25.027029379148896
30
0
11
260.02920963856911
21
36.027032113511964
31
0
0
ENDSEC
0
SECTION
2
OBJECTS
0
DICTIONARY
5
C
100
AcDbDictionary
3
ACAD_GROUP
350
D
3
ACAD_MLINESTYLE
350
17
0
DICTIONARY
5
D
100
AcDbDictionary
0
DICTIONARY
5
1A
330
C
100
AcDbDictionary
0
DICTIONARY
5
17
100
AcDbDictionary
0
ENDSEC
0
EOF
